<svg>
    // logo
    <symbol width="130" height="30" viewBox="0 0 130 30" fill="none" xmlns="http://www.w3.org/2000/svg" id="logo">
        <path d="M17.56 21.992H25.496V25H13.432L17.56 21.992ZM0.888 13.448C0.888 11.848 1.18667 10.344 1.784 8.936C2.40267 7.50667 3.256 6.248 4.344 5.16C5.432 4.05067 6.68 3.18667 8.088 2.568C9.51733 1.928 11.0533 1.608 12.696 1.608C14.3173 1.608 15.832 1.928 17.24 2.568C18.6693 3.18667 19.928 4.05067 21.016 5.16C22.1253 6.248 22.9893 7.50667 23.608 8.936C24.2267 10.344 24.536 11.848 24.536 13.448C24.536 15.0907 24.2267 16.6267 23.608 18.056C22.9893 19.4853 22.1253 20.744 21.016 21.832C19.928 22.8987 18.6693 23.7413 17.24 24.36C15.832 24.9573 14.3173 25.256 12.696 25.256C11.0533 25.256 9.51733 24.9573 8.088 24.36C6.68 23.7627 5.432 22.9307 4.344 21.864C3.256 20.7973 2.40267 19.5493 1.784 18.12C1.18667 16.6907 0.888 15.1333 0.888 13.448ZM4.088 13.48C4.088 14.696 4.312 15.8373 4.76 16.904C5.208 17.9493 5.82667 18.8773 6.616 19.688C7.40533 20.4987 8.32267 21.128 9.368 21.576C10.4133 22.024 11.544 22.248 12.76 22.248C13.9547 22.248 15.0747 22.024 16.12 21.576C17.1653 21.128 18.072 20.4987 18.84 19.688C19.608 18.8773 20.216 17.9493 20.664 16.904C21.112 15.8373 21.336 14.6853 21.336 13.448C21.336 12.2533 21.112 11.1227 20.664 10.056C20.216 8.98933 19.5973 8.06133 18.808 7.272C18.0187 6.46133 17.1013 5.832 16.056 5.384C15.0107 4.91467 13.8907 4.68 12.696 4.68C11.48 4.68 10.3493 4.91467 9.304 5.384C8.25867 5.832 7.34133 6.46133 6.552 7.272C5.76267 8.08267 5.15467 9.02133 4.728 10.088C4.30133 11.1547 4.088 12.2853 4.088 13.48ZM34.159 25.512C32.9643 25.512 31.9723 25.1493 31.183 24.424C30.415 23.6773 30.0097 22.7173 29.967 21.544V11.752H32.943V20.488C32.9857 21.2133 33.1883 21.8 33.551 22.248C33.935 22.696 34.5323 22.9307 35.343 22.952C36.0897 22.952 36.751 22.7387 37.327 22.312C37.9243 21.864 38.4043 21.2667 38.767 20.52C39.1297 19.752 39.311 18.888 39.311 17.928V11.752H42.287V25H39.567L39.311 21.736L39.471 22.312C39.215 22.9307 38.8203 23.4853 38.287 23.976C37.775 24.4453 37.167 24.8187 36.463 25.096C35.759 25.3733 34.991 25.512 34.159 25.512ZM47.4358 11.752H50.4118V25H47.4358V11.752ZM47.2118 6.952C47.2118 6.48267 47.3931 6.088 47.7558 5.768C48.1398 5.448 48.5558 5.288 49.0038 5.288C49.4518 5.288 49.8464 5.448 50.1878 5.768C50.5504 6.088 50.7318 6.48267 50.7318 6.952C50.7318 7.44267 50.5504 7.848 50.1878 8.168C49.8464 8.46667 49.4518 8.616 49.0038 8.616C48.5558 8.616 48.1398 8.456 47.7558 8.136C47.3931 7.816 47.2118 7.42133 47.2118 6.952ZM66.3128 23.784C65.7154 24.2533 65.0008 24.6267 64.1688 24.904C63.3368 25.1813 62.5048 25.32 61.6728 25.32C60.2221 25.32 58.9528 25.032 57.8648 24.456C56.7768 23.88 55.9234 23.08 55.3048 22.056C54.7074 21.0107 54.4088 19.784 54.4088 18.376C54.4088 16.968 54.7288 15.7413 55.3688 14.696C56.0301 13.6507 56.8834 12.8507 57.9288 12.296C58.9954 11.72 60.1368 11.432 61.3528 11.432C62.4194 11.432 63.3688 11.5813 64.2008 11.88C65.0541 12.1787 65.7794 12.584 66.3768 13.096L64.9048 15.016C64.5208 14.7173 64.0514 14.4507 63.4968 14.216C62.9421 13.9813 62.3128 13.864 61.6088 13.864C60.8408 13.864 60.1261 14.0667 59.4648 14.472C58.8248 14.856 58.3128 15.3893 57.9288 16.072C57.5661 16.7547 57.3848 17.5227 57.3848 18.376C57.3848 19.1867 57.5768 19.944 57.9608 20.648C58.3448 21.3307 58.8781 21.8747 59.5608 22.28C60.2434 22.664 61.0221 22.856 61.8968 22.856C62.4728 22.856 62.9954 22.7707 63.4648 22.6C63.9554 22.4293 64.3928 22.1947 64.7768 21.896L66.3128 23.784ZM70.1545 25V0.231998H73.1305V25H70.1545ZM76.3305 16.2L82.4105 25H78.9225L74.3465 17.864L76.3305 16.2ZM72.2025 20.776L71.9145 17.928L79.9465 11.464L81.7705 13.032L72.2025 20.776ZM104.94 23.016C104.62 23.2933 104.172 23.5707 103.596 23.848C103.02 24.104 102.38 24.3387 101.676 24.552C100.993 24.7653 100.279 24.936 99.532 25.064C98.8067 25.192 98.124 25.256 97.484 25.256C95.628 25.256 93.9533 24.968 92.46 24.392C90.988 23.816 89.7187 23.016 88.652 21.992C87.6067 20.968 86.796 19.7627 86.22 18.376C85.6653 16.9893 85.388 15.4853 85.388 13.864C85.388 11.944 85.6973 10.2267 86.316 8.712C86.956 7.176 87.82 5.88533 88.908 4.84C90.0173 3.77333 91.2867 2.97333 92.716 2.44C94.1453 1.88533 95.66 1.608 97.26 1.608C98.604 1.608 99.852 1.768 101.004 2.088C102.156 2.408 103.169 2.81333 104.044 3.304L102.988 6.152C102.561 5.896 102.028 5.66133 101.388 5.448C100.769 5.23467 100.129 5.064 99.468 4.936C98.8067 4.78667 98.188 4.712 97.612 4.712C96.2467 4.712 95.0093 4.92533 93.9 5.352C92.7907 5.75733 91.8413 6.35467 91.052 7.144C90.2627 7.912 89.6547 8.85067 89.228 9.96C88.8013 11.048 88.588 12.2747 88.588 13.64C88.588 14.8987 88.8013 16.0507 89.228 17.096C89.6547 18.1413 90.2627 19.048 91.052 19.816C91.8413 20.5627 92.78 21.1493 93.868 21.576C94.9773 21.9813 96.1933 22.184 97.516 22.184C98.3053 22.184 99.084 22.1093 99.852 21.96C100.62 21.7893 101.281 21.5547 101.836 21.256V16.648H97.228V13.672H104.94V23.016ZM108.971 18.248C108.971 16.9253 109.281 15.7307 109.899 14.664C110.539 13.5973 111.414 12.7547 112.523 12.136C113.633 11.5173 114.891 11.208 116.299 11.208C117.75 11.208 119.019 11.5173 120.107 12.136C121.195 12.7547 122.038 13.5973 122.635 14.664C123.233 15.7307 123.531 16.9253 123.531 18.248C123.531 19.5707 123.233 20.776 122.635 21.864C122.038 22.9307 121.185 23.7733 120.075 24.392C118.987 25.0107 117.718 25.32 116.267 25.32C114.859 25.32 113.601 25.032 112.491 24.456C111.403 23.8587 110.539 23.0373 109.899 21.992C109.281 20.9253 108.971 19.6773 108.971 18.248ZM111.947 18.28C111.947 19.1333 112.139 19.912 112.523 20.616C112.907 21.2987 113.419 21.8427 114.059 22.248C114.721 22.6533 115.446 22.856 116.235 22.856C117.067 22.856 117.803 22.6533 118.443 22.248C119.105 21.8427 119.617 21.2987 119.979 20.616C120.342 19.912 120.523 19.1333 120.523 18.28C120.523 17.4267 120.342 16.6587 119.979 15.976C119.617 15.272 119.105 14.7173 118.443 14.312C117.803 13.8853 117.067 13.672 116.235 13.672C115.425 13.672 114.689 13.8853 114.027 14.312C113.387 14.7387 112.875 15.304 112.491 16.008C112.129 16.6907 111.947 17.448 111.947 18.28Z" fill="#0BD366"/>
    </symbol>

    // burger
    <symbol width="45" height="45" viewBox="0 0 45 45" fill="none" xmlns="http://www.w3.org/2000/svg" id="burger">
        <g clip-path="url(#clip0_37_45)">
        <path d="M39.375 14.0625H5.625C5.25204 14.0625 4.89435 13.9143 4.63063 13.6506C4.36691 13.3869 4.21875 13.0292 4.21875 12.6562C4.21875 12.2833 4.36691 11.9256 4.63063 11.6619C4.89435 11.3982 5.25204 11.25 5.625 11.25H39.375C39.748 11.25 40.1056 11.3982 40.3694 11.6619C40.6331 11.9256 40.7812 12.2833 40.7812 12.6562C40.7812 13.0292 40.6331 13.3869 40.3694 13.6506C40.1056 13.9143 39.748 14.0625 39.375 14.0625Z" fill="black"/>
        <path d="M39.375 23.9062H5.625C5.25204 23.9062 4.89435 23.7581 4.63063 23.4944C4.36691 23.2306 4.21875 22.873 4.21875 22.5C4.21875 22.127 4.36691 21.7694 4.63063 21.5056C4.89435 21.2419 5.25204 21.0938 5.625 21.0938H39.375C39.748 21.0938 40.1056 21.2419 40.3694 21.5056C40.6331 21.7694 40.7812 22.127 40.7812 22.5C40.7812 22.873 40.6331 23.2306 40.3694 23.4944C40.1056 23.7581 39.748 23.9062 39.375 23.9062Z" fill="black"/>
        <path d="M39.375 33.75H5.625C5.25204 33.75 4.89435 33.6018 4.63063 33.3381C4.36691 33.0744 4.21875 32.7167 4.21875 32.3438C4.21875 31.9708 4.36691 31.6131 4.63063 31.3494C4.89435 31.0857 5.25204 30.9375 5.625 30.9375H39.375C39.748 30.9375 40.1056 31.0857 40.3694 31.3494C40.6331 31.6131 40.7812 31.9708 40.7812 32.3438C40.7812 32.7167 40.6331 33.0744 40.3694 33.3381C40.1056 33.6018 39.748 33.75 39.375 33.75Z" fill="black"/>
        </g>
        <defs>
        <clipPath id="clip0_37_45">
        <rect width="45" height="45" fill="white"/>
        </clipPath>
        </defs>
    </symbol>

    // stat_user
    <symbol width="37" height="38" viewBox="0 0 37 38" fill="none" xmlns="http://www.w3.org/2000/svg" id="stat_user">
        <rect y="0.5" width="37" height="37" rx="18.5" fill="#0BD366" fill-opacity="0.37"/>
        <path d="M18.5 19C21.2614 19 23.5 16.7614 23.5 14C23.5 11.2386 21.2614 9 18.5 9C15.7386 9 13.5 11.2386 13.5 14C13.5 16.7614 15.7386 19 18.5 19Z" fill="#0BD366"/>
        <path d="M18.5 21.5C13.49 21.5 9.40997 24.86 9.40997 29C9.40997 29.28 9.62997 29.5 9.90997 29.5H27.09C27.37 29.5 27.59 29.28 27.59 29C27.59 24.86 23.51 21.5 18.5 21.5Z" fill="#0BD366"/>
    </symbol>

    // stat_car
    <svg width="37" height="38" viewBox="0 0 37 38" fill="none" xmlns="http://www.w3.org/2000/svg" id="stat_car">
        <rect y="0.5" width="37" height="37" rx="18.5" fill="#A5EFC7"/>
        <path d="M30.203 18.0315H30.1875L28.125 15.2815V15.266L28.1095 15.25C27.6485 14.6935 26.957 14 26 14H22C21.8225 14 21.658 14.037 21.5 14.094C21.1365 14.2815 20.498 14.7165 20.5 15.4535V20V20.475V21H19.5V15.5C19.5 15.224 19.276 15 19 15H17V9.5C17 9.224 16.776 9 16.5 9H10.5C10.224 9 10 9.224 10 9.5V15H8C7.724 15 7.5 15.224 7.5 15.5V21H6.5C6.224 21 6 21.224 6 21.5V24.5C6 25.603 6.897 26.5 8 26.5H10.045C10.284 27.9165 11.516 29 13 29C14.484 29 15.7155 27.9165 15.955 26.5H22.547C22.7855 27.918 24.0175 29 25.5 29C26.98 29 28.2145 27.914 28.4545 26.5H28.5H29H29.5C30.33 26.5 31 25.83 31 25V20.1875C31 19.043 30.203 18.0315 30.203 18.0315ZM28.172 17L29.391 18.625C29.391 18.625 29.844 19.4005 29.938 20H25C24.916 20 24.781 19.9375 24.672 19.828C24.563 19.7185 24.5 19.584 24.5 19.5V17.5C24.5 17.248 24.797 17 25 17H28.172ZM18.5 21H13.5V16H18.5V21ZM11 10H16V15H14H13H11V10ZM8.5 16H10.5H12.5V21H8.5V16ZM13 28C11.897 28 11 27.103 11 26C11 24.897 11.897 24 13 24C14.103 24 15 24.897 15 26C15 27.103 14.103 28 13 28ZM25.5 28C24.3885 28 23.5 27.1115 23.5 26C23.5 24.8885 24.3885 24 25.5 24C26.6115 24 27.5 24.8885 27.5 26C27.5 27.1115 26.6115 28 25.5 28ZM30 25C30 25.1875 29.6875 25.5 29.5 25.5H29H28.5H28.4545C28.2145 24.086 26.9795 23 25.5 23C24.0175 23 22.785 24.082 22.547 25.5H22.5H15.955C15.716 24.0835 14.484 23 13 23C11.516 23 10.2845 24.0835 10.045 25.5H8C7.4485 25.5 7 25.0515 7 24.5V22H8H13H14H19H21C21.276 22 21.5 21.776 21.5 21.5V20.475V19.5V15.5C21.5 15.3125 21.8125 15 22 15H26C26.3925 15 26.9455 15.42 27.328 15.875C27.332 15.881 27.3395 15.885 27.3435 15.8905L27.422 16H25C24.203 16 23.5 16.6445 23.5 17.5V19.5C23.5 19.916 23.6875 20.2815 23.953 20.547C24.2185 20.8125 24.584 21 25 21H30V25Z" fill="#0BD366"/>
    </svg>

    // stat_order
    <svg width="37" height="38" viewBox="0 0 37 38" fill="none" xmlns="http://www.w3.org/2000/svg" id="stat_order">
        <rect y="0.5" width="37" height="37" rx="18.5" fill="#A5EFC7"/>
        <path d="M30.5182 11.4885L18.6533 6.53646C18.5361 6.48785 18.4063 6.48785 18.2891 6.53646L6.34133 11.5231C6.13158 11.5911 5.87796 11.9602 6.06558 12.338V26.3207C6.06558 26.5677 6.20608 26.7871 6.41558 26.868L18.1725 31.391C18.2423 31.4357 18.2961 31.475 18.4193 31.4932C18.592 31.5187 18.7022 31.4644 18.7022 31.4644L30.6499 26.868C30.8594 26.7871 31 26.5677 31 26.3207V12.0653C31.0043 11.7879 30.7124 11.5652 30.5182 11.4885ZM28.9376 12.0653L18.5023 16.421L15.3707 15.1142L25.3098 10.5511L28.9376 12.0653ZM23.8807 9.95459L13.4363 14.7495L13.1792 17.5342L11.2347 16.6612V14.0766L22.0673 9.19767L23.8807 9.95459ZM18.4712 7.69676L20.6286 8.59718L10.5885 13.1183L8.03539 12.0525L18.4712 7.69676ZM7.10458 12.9262L10.1958 14.2165V17.4426L14.0714 19.1831L14.3692 15.958L18.0134 17.4791V30.1046L7.10458 25.9079V12.9262ZM29.9611 25.9079L19.0523 30.1045V17.4534L29.9611 12.9005V25.9079Z" fill="#0BD366"/>
    </svg>

    // green checkmark
    <symbol width="24" height="24" viewBox="0 0 24 24" fill="none" xmlns="http://www.w3.org/2000/svg" id="checkmark">
        <path d="M12 2C6.49 2 2 6.49 2 12C2 17.51 6.49 22 12 22C17.51 22 22 17.51 22 12C22 6.49 17.51 2 12 2ZM16.78 9.7L11.11 15.37C10.97 15.51 10.78 15.59 10.58 15.59C10.38 15.59 10.19 15.51 10.05 15.37L7.22 12.54C6.93 12.25 6.93 11.77 7.22 11.48C7.51 11.19 7.99 11.19 8.28 11.48L10.58 13.78L15.72 8.64C16.01 8.35 16.49 8.35 16.78 8.64C17.07 8.93 17.07 9.4 16.78 9.7Z" fill="#2BBC28"/>
    </symbol>

    // email
    <symbol width="37" height="38" viewBox="0 0 37 38" fill="none" xmlns="http://www.w3.org/2000/svg" id="email">
        <rect y="0.5" width="37" height="37" rx="18.5" fill="#0BD366" fill-opacity="0.37"/>
        <path d="M9.61111 25L15.1667 19M27.3889 25L21.8333 19M8.5 15L16.5278 19.8166C17.2406 20.2443 17.5969 20.4582 17.9821 20.5412C18.3226 20.6147 18.6774 20.6147 19.0179 20.5412C19.4031 20.4582 19.7594 20.2443 20.4722 19.8166L28.5 15M12.0556 26H24.9444C26.189 26 26.8113 26 27.2867 25.782C27.7048 25.5903 28.0448 25.2843 28.2578 24.908C28.5 24.4802 28.5 23.9201 28.5 22.8V15.2C28.5 14.0799 28.5 13.5198 28.2578 13.092C28.0448 12.7157 27.7048 12.4097 27.2867 12.218C26.8113 12 26.189 12 24.9444 12H12.0556C10.811 12 10.1887 12 9.71336 12.218C9.29521 12.4097 8.95526 12.7157 8.74221 13.092C8.5 13.5198 8.5 14.0799 8.5 15.2V22.8C8.5 23.9201 8.5 24.4802 8.74221 24.908C8.95526 25.2843 9.29521 25.5903 9.71336 25.782C10.1887 26 10.811 26 12.0556 26Z" stroke="#0BD366" stroke-linecap="round" stroke-linejoin="round"/>
    </symbol>

    // phone
    <symbol width="37" height="38" viewBox="0 0 37 38" fill="none" xmlns="http://www.w3.org/2000/svg" id="phone">
        <rect y="0.5" width="37" height="37" rx="18.5" fill="#A5EFC7"/>
        <path d="M8.5 12.8611C8.5 20.9459 16.2107 27.5 25.7222 27.5C26.1513 27.5 26.5768 27.4867 26.9981 27.4604C27.4816 27.4303 27.7232 27.4153 27.9433 27.3076C28.1256 27.2185 28.2983 27.0604 28.3897 26.8993C28.5 26.705 28.5 26.4782 28.5 26.0248V23.364C28.5 22.9826 28.5 22.7919 28.4261 22.6286C28.361 22.4841 28.255 22.3556 28.1177 22.2542C27.9622 22.1393 27.7513 22.0742 27.3298 21.9438L23.7667 20.8425C23.2761 20.6909 23.0308 20.6151 22.7981 20.6279C22.5929 20.6393 22.3954 20.6989 22.2277 20.7999C22.0374 20.9145 21.9032 21.1047 21.6347 21.4852L20.7222 22.7778C17.7779 21.6443 15.391 19.6128 14.0556 17.1111L15.5763 16.3356C16.0238 16.1073 16.2476 15.9932 16.3824 15.8314C16.5013 15.6889 16.5714 15.521 16.5848 15.3466C16.5999 15.1488 16.5107 14.9403 16.3323 14.5234L15.0367 11.4947C14.8833 11.1363 14.8067 10.9571 14.6716 10.825C14.5522 10.7082 14.401 10.6182 14.2311 10.5628C14.0388 10.5 13.8145 10.5 13.3659 10.5H10.2356C9.70209 10.5 9.43534 10.5 9.20664 10.5937C9.01722 10.6714 8.83127 10.8183 8.72633 10.9732C8.59964 11.1602 8.58194 11.3657 8.54654 11.7766C8.5157 12.1347 8.5 12.4963 8.5 12.8611Z" stroke="#0BD366" stroke-linecap="round" stroke-linejoin="round"/>
    </symbol>

    // tg
    <symbol width="37" height="38" viewBox="0 0 37 38" fill="none" xmlns="http://www.w3.org/2000/svg" id="icon-tg">
        <rect y="0.5" width="37" height="37" rx="18.5" fill="#A5EFC7"/>
        <path fill-rule="evenodd" clip-rule="evenodd" d="M28.4615 12.5276C28.7493 11.2211 27.3712 10.1354 26.0352 10.616L9.65816 16.508C8.16616 17.0447 8.09968 18.9875 9.55194 19.6116L13.1184 21.1444L14.815 26.6737C14.9031 26.9609 15.1479 27.1833 15.4584 27.2582C15.769 27.3331 16.0989 27.2495 16.3257 27.0382L18.9392 24.6046L22.6001 27.1614C23.6628 27.9035 25.1934 27.363 25.4603 26.1513L28.4615 12.5276ZM10.3107 18.0807L26.6878 12.1888L23.6865 25.8125L19.3974 22.8171C19.037 22.5654 18.5327 22.5988 18.2141 22.8954L17.0947 23.9377L17.431 22.2153L24.0212 16.0789C24.3419 15.7802 24.3758 15.3067 24.1005 14.9711C23.8251 14.6354 23.3257 14.5413 22.9318 14.7508L13.8307 19.5934L10.3107 18.0807ZM14.9404 20.9449L15.4894 22.7341L15.7001 21.6546C15.7331 21.486 15.8205 21.3306 15.9507 21.2094L17.9605 19.338L14.9404 20.9449Z" fill="#0BD366"/>
    </symbol>

    // vk
    <symbol width="38" height="38" viewBox="0 0 38 38" fill="none" xmlns="http://www.w3.org/2000/svg" id="icon-vk">
        <rect x="0.5" y="0.5" width="37" height="37" rx="18.5" fill="#A5EFC7"/>
        <path d="M10.8095 10.8095L10.4712 10.4744L10.4752 10.4704L10.8095 10.8095ZM10.8095 27.1905L10.4744 27.5288L10.4704 27.5248L10.8095 27.1905ZM27.1905 27.1905L27.5289 27.5256L27.5249 27.5296L27.1905 27.1905ZM27.1905 10.8095L27.5256 10.4712L27.5296 10.4752L27.1905 10.8095ZM12.6889 15.273L12.2128 15.2828C12.2102 15.1548 12.2592 15.0312 12.3487 14.9398C12.4383 14.8483 12.5609 14.7968 12.6889 14.7968V15.273ZM19.8635 23.1969H20.3397C20.3397 23.4598 20.1265 23.673 19.8635 23.673V23.1969ZM19.8635 20.365H19.3873C19.3873 20.2306 19.4442 20.1024 19.5439 20.0121C19.6436 19.9218 19.7768 19.8779 19.9107 19.8912L19.8635 20.365ZM23.1461 23.1969V23.673C22.939 23.673 22.7558 23.5393 22.6927 23.3422L23.1461 23.1969ZM25.4 23.1969L25.8597 23.0726C25.8984 23.2156 25.8683 23.3686 25.7782 23.4863C25.688 23.604 25.5483 23.673 25.4 23.673V23.1969ZM22.1428 19.2222L21.9307 19.6486C21.7755 19.5712 21.6745 19.4157 21.6671 19.2425C21.6597 19.0692 21.7471 18.9057 21.8952 18.8155L22.1428 19.2222ZM24.9238 15.2667V14.7905C25.0668 14.7905 25.2023 14.8548 25.2928 14.9656C25.3832 15.0764 25.419 15.222 25.3904 15.3621L24.9238 15.2667ZM22.8794 15.2667L22.4211 15.1373C22.479 14.9322 22.6662 14.7905 22.8794 14.7905V15.2667ZM19.8635 18.4031L19.914 18.8767C19.7797 18.891 19.6456 18.8476 19.5451 18.7573C19.4446 18.667 19.3873 18.5383 19.3873 18.4031H19.8635ZM19.8635 15.273V14.7968C20.1265 14.7968 20.3397 15.01 20.3397 15.273H19.8635ZM17.8127 15.273H17.3365C17.3365 15.01 17.5497 14.7968 17.8127 14.7968V15.273ZM17.8127 20.7588H18.2889C18.2889 20.9053 18.2213 21.0438 18.1058 21.1341C17.9902 21.2243 17.8395 21.2563 17.6972 21.2207L17.8127 20.7588ZM14.873 15.273V14.7968C15.1324 14.7968 15.3441 15.0045 15.3491 15.2639L14.873 15.273ZM9 18.619C9 16.4769 8.999 14.8234 9.17088 13.5392C9.34458 12.2414 9.70254 11.2504 10.4712 10.4744L11.1478 11.1446C10.5832 11.7147 10.2745 12.4729 10.1148 13.6656C9.95338 14.8719 9.95238 16.4501 9.95238 18.619H9ZM9 19.381V18.619H9.95238V19.381H9ZM10.4704 27.5248C9.70253 26.7459 9.34459 25.754 9.17088 24.456C8.999 23.1719 9 21.52 9 19.381H9.95238C9.95238 21.5467 9.95338 23.1233 10.1148 24.3297C10.2745 25.5222 10.5832 26.2827 11.1486 26.8562L10.4704 27.5248ZM18.619 29C16.4769 29 14.8234 29.001 13.5392 28.8291C12.2413 28.6554 11.2504 28.2974 10.4744 27.5288L11.1446 26.8522C11.7147 27.4169 12.4729 27.7255 13.6656 27.8851C14.8719 28.0466 16.4501 28.0476 18.619 28.0476V29ZM19.3809 29H18.619V28.0476H19.3809V29ZM27.5249 27.5296C26.746 28.2975 25.754 28.6554 24.4561 28.8291C23.1719 29.001 21.52 29 19.3809 29V28.0476C21.5467 28.0476 23.1234 28.0466 24.3297 27.8851C25.5223 27.7255 26.2827 27.4168 26.8562 26.8513L27.5249 27.5296ZM29 19.381C29 21.5231 29.001 23.1767 28.8291 24.4608C28.6554 25.7587 28.2975 26.7496 27.5289 27.5256L26.8522 26.8553C27.4169 26.2853 27.7256 25.527 27.8852 24.3345C28.0467 23.1281 28.0476 21.5499 28.0476 19.381H29ZM29 18.619V19.381H28.0476V18.619H29ZM27.5296 10.4752C28.2975 11.2541 28.6554 12.246 28.8291 13.544C29.001 14.8281 29 16.48 29 18.619H28.0476C28.0476 16.4533 28.0467 14.8766 27.8852 13.6703C27.7256 12.4778 27.4169 11.7174 26.8514 11.1438L27.5296 10.4752ZM19.3809 9C21.5231 9 23.1767 8.999 24.4608 9.17088C25.7587 9.34458 26.7496 9.70253 27.5256 10.4712L26.8554 11.1478C26.2853 10.5832 25.5271 10.2745 24.3345 10.1148C23.1282 9.95338 21.5499 9.95238 19.3809 9.95238V9ZM18.619 9H19.3809V9.95238H18.619V9ZM10.4752 10.4704C11.2541 9.70252 12.246 9.3446 13.544 9.17088C14.8281 8.999 16.4801 9 18.619 9V9.95238C16.4533 9.95238 14.8766 9.95338 13.6703 10.1148C12.4778 10.2744 11.7174 10.5832 11.1439 11.1486L10.4752 10.4704ZM19.6095 23.673C17.3217 23.673 15.4767 22.8855 14.1981 21.403C12.929 19.9316 12.2651 17.8304 12.2128 15.2828L13.165 15.2632C13.2143 17.668 13.8392 19.5287 14.9193 20.781C15.99 22.0224 17.5545 22.7207 19.6095 22.7207V23.673ZM19.6159 23.673H19.6095V22.7207H19.6159V23.673ZM19.8635 23.673H19.6159V22.7207H19.8635V23.673ZM20.3397 20.365V23.1969H19.3873V20.365H20.3397ZM22.6927 23.3422C22.2565 21.9821 21.1863 20.9753 19.8163 20.839L19.9107 19.8912C21.728 20.0723 23.0706 21.402 23.5995 23.0514L22.6927 23.3422ZM25.4 23.673H23.1461V22.7207H25.4V23.673ZM24.5659 20.5585C25.17 21.2956 25.6109 22.1525 25.8597 23.0726L24.9404 23.3211C24.7268 22.531 24.3481 21.7951 23.8292 21.1622L24.5659 20.5585ZM22.355 18.7959C23.2083 19.2206 23.9618 19.8213 24.5659 20.5585L23.8292 21.1622C23.3105 20.5291 22.6634 20.0132 21.9307 19.6486L22.355 18.7959ZM24.3352 17.8082C23.819 18.5424 23.157 19.1622 22.3906 19.629L21.8952 18.8155C22.5499 18.4169 23.1152 17.8874 23.5561 17.2605L24.3352 17.8082ZM25.3904 15.3621C25.2106 16.2413 24.8513 17.074 24.3352 17.8082L23.5561 17.2605C23.9969 16.6334 24.3037 15.9222 24.4573 15.1713L25.3904 15.3621ZM22.8794 14.7905H24.9238V15.7429H22.8794V14.7905ZM19.813 17.9297C20.2859 17.8792 20.8311 17.571 21.3286 17.0474C21.8197 16.5304 22.2207 15.847 22.4211 15.1373L23.3377 15.396C23.0935 16.2609 22.6121 17.0791 22.0191 17.7033C21.4324 18.321 20.692 18.7937 19.914 18.8767L19.813 17.9297ZM20.3397 15.273V18.4031H19.3873V15.273H20.3397ZM17.8127 14.7968H19.8635V15.7492H17.8127V14.7968ZM17.3365 20.7588V15.273H18.2889V20.7588H17.3365ZM15.3491 15.2639C15.4164 18.7644 16.9385 20.0493 17.9282 20.2968L17.6972 21.2207C16.1472 20.8332 14.4693 19.0451 14.3969 15.2822L15.3491 15.2639ZM12.6889 14.7968H14.873V15.7492H12.6889V14.7968Z" fill="#0BD366"/>
    </symbol>

    // eye open
    <symbol width="29" height="14" viewBox="0 0 29 14" fill="none" xmlns="http://www.w3.org/2000/svg" id="eye_open">
        <path d="M1.35988 6.80016L2.91065 8.21136C9.30314 14.0285 19.7028 14.0285 26.0953 8.21136L27.6401 6.80016L26.0893 5.38896C19.6969 -0.428208 9.29722 -0.428208 2.90473 5.38896L1.35988 6.80016ZM14.5 13.5976C10.0134 13.5976 5.52684 12.041 2.11159 8.93312L0.164251 7.16104C-0.0547505 6.96175 -0.0547505 6.63857 0.164251 6.43389L2.11159 4.66181C8.94209 -1.55394 20.0579 -1.55394 26.8884 4.66181L28.8357 6.43389C29.0548 6.63318 29.0548 6.95636 28.8357 7.16104L26.8884 8.93312C23.4732 12.041 18.9866 13.5976 14.5 13.5976Z" fill="black"/>
        <path d="M14.5 2.89522C12.1324 2.89522 10.2088 4.64575 10.2088 6.80026C10.2088 8.95476 12.1324 10.7053 14.5 10.7053C16.8676 10.7053 18.7913 8.95476 18.7913 6.80026C18.7913 4.64575 16.8676 2.89522 14.5 2.89522ZM14.5 11.7287C11.5109 11.7287 9.08417 9.51494 9.08417 6.80026C9.08417 4.08019 11.5169 1.87183 14.5 1.87183C17.4832 1.87183 19.9159 4.08558 19.9159 6.80026C19.9159 9.52032 17.4891 11.7287 14.5 11.7287Z" fill="black"/>
    </symbol>

    // eye close
    <svg width="31" height="13" viewBox="0 0 31 13" fill="none" xmlns="http://www.w3.org/2000/svg" id="eye_close">
        <path d="M1 1C5.32791 5.66667 10.1612 8 15.5 8C20.8388 8 25.6721 5.66667 30 1" stroke="black" stroke-linecap="round" stroke-linejoin="round"/>
        <path d="M5.26479 5.74988L1.85303 9.125" stroke="black" stroke-linecap="round" stroke-linejoin="round"/>
        <path d="M25.7352 5.74988L29.147 9.125" stroke="black" stroke-linecap="round" stroke-linejoin="round"/>
        <path d="M19 8L20.7059 12.0625" stroke="black" stroke-linecap="round" stroke-linejoin="round"/>
        <path d="M12.7059 8L11 12.0625" stroke="black" stroke-linecap="round" stroke-linejoin="round"/>
    </svg>

</svg>