<svg>
    // logo
    <symbol width="130" height="30" viewBox="0 0 130 30" fill="none" xmlns="http://www.w3.org/2000/svg" id="logo">
        <path d="M17.56 21.992H25.496V25H13.432L17.56 21.992ZM0.888 13.448C0.888 11.848 1.18667 10.344 1.784 8.936C2.40267 7.50667 3.256 6.248 4.344 5.16C5.432 4.05067 6.68 3.18667 8.088 2.568C9.51733 1.928 11.0533 1.608 12.696 1.608C14.3173 1.608 15.832 1.928 17.24 2.568C18.6693 3.18667 19.928 4.05067 21.016 5.16C22.1253 6.248 22.9893 7.50667 23.608 8.936C24.2267 10.344 24.536 11.848 24.536 13.448C24.536 15.0907 24.2267 16.6267 23.608 18.056C22.9893 19.4853 22.1253 20.744 21.016 21.832C19.928 22.8987 18.6693 23.7413 17.24 24.36C15.832 24.9573 14.3173 25.256 12.696 25.256C11.0533 25.256 9.51733 24.9573 8.088 24.36C6.68 23.7627 5.432 22.9307 4.344 21.864C3.256 20.7973 2.40267 19.5493 1.784 18.12C1.18667 16.6907 0.888 15.1333 0.888 13.448ZM4.088 13.48C4.088 14.696 4.312 15.8373 4.76 16.904C5.208 17.9493 5.82667 18.8773 6.616 19.688C7.40533 20.4987 8.32267 21.128 9.368 21.576C10.4133 22.024 11.544 22.248 12.76 22.248C13.9547 22.248 15.0747 22.024 16.12 21.576C17.1653 21.128 18.072 20.4987 18.84 19.688C19.608 18.8773 20.216 17.9493 20.664 16.904C21.112 15.8373 21.336 14.6853 21.336 13.448C21.336 12.2533 21.112 11.1227 20.664 10.056C20.216 8.98933 19.5973 8.06133 18.808 7.272C18.0187 6.46133 17.1013 5.832 16.056 5.384C15.0107 4.91467 13.8907 4.68 12.696 4.68C11.48 4.68 10.3493 4.91467 9.304 5.384C8.25867 5.832 7.34133 6.46133 6.552 7.272C5.76267 8.08267 5.15467 9.02133 4.728 10.088C4.30133 11.1547 4.088 12.2853 4.088 13.48ZM34.159 25.512C32.9643 25.512 31.9723 25.1493 31.183 24.424C30.415 23.6773 30.0097 22.7173 29.967 21.544V11.752H32.943V20.488C32.9857 21.2133 33.1883 21.8 33.551 22.248C33.935 22.696 34.5323 22.9307 35.343 22.952C36.0897 22.952 36.751 22.7387 37.327 22.312C37.9243 21.864 38.4043 21.2667 38.767 20.52C39.1297 19.752 39.311 18.888 39.311 17.928V11.752H42.287V25H39.567L39.311 21.736L39.471 22.312C39.215 22.9307 38.8203 23.4853 38.287 23.976C37.775 24.4453 37.167 24.8187 36.463 25.096C35.759 25.3733 34.991 25.512 34.159 25.512ZM47.4358 11.752H50.4118V25H47.4358V11.752ZM47.2118 6.952C47.2118 6.48267 47.3931 6.088 47.7558 5.768C48.1398 5.448 48.5558 5.288 49.0038 5.288C49.4518 5.288 49.8464 5.448 50.1878 5.768C50.5504 6.088 50.7318 6.48267 50.7318 6.952C50.7318 7.44267 50.5504 7.848 50.1878 8.168C49.8464 8.46667 49.4518 8.616 49.0038 8.616C48.5558 8.616 48.1398 8.456 47.7558 8.136C47.3931 7.816 47.2118 7.42133 47.2118 6.952ZM66.3128 23.784C65.7154 24.2533 65.0008 24.6267 64.1688 24.904C63.3368 25.1813 62.5048 25.32 61.6728 25.32C60.2221 25.32 58.9528 25.032 57.8648 24.456C56.7768 23.88 55.9234 23.08 55.3048 22.056C54.7074 21.0107 54.4088 19.784 54.4088 18.376C54.4088 16.968 54.7288 15.7413 55.3688 14.696C56.0301 13.6507 56.8834 12.8507 57.9288 12.296C58.9954 11.72 60.1368 11.432 61.3528 11.432C62.4194 11.432 63.3688 11.5813 64.2008 11.88C65.0541 12.1787 65.7794 12.584 66.3768 13.096L64.9048 15.016C64.5208 14.7173 64.0514 14.4507 63.4968 14.216C62.9421 13.9813 62.3128 13.864 61.6088 13.864C60.8408 13.864 60.1261 14.0667 59.4648 14.472C58.8248 14.856 58.3128 15.3893 57.9288 16.072C57.5661 16.7547 57.3848 17.5227 57.3848 18.376C57.3848 19.1867 57.5768 19.944 57.9608 20.648C58.3448 21.3307 58.8781 21.8747 59.5608 22.28C60.2434 22.664 61.0221 22.856 61.8968 22.856C62.4728 22.856 62.9954 22.7707 63.4648 22.6C63.9554 22.4293 64.3928 22.1947 64.7768 21.896L66.3128 23.784ZM70.1545 25V0.231998H73.1305V25H70.1545ZM76.3305 16.2L82.4105 25H78.9225L74.3465 17.864L76.3305 16.2ZM72.2025 20.776L71.9145 17.928L79.9465 11.464L81.7705 13.032L72.2025 20.776ZM104.94 23.016C104.62 23.2933 104.172 23.5707 103.596 23.848C103.02 24.104 102.38 24.3387 101.676 24.552C100.993 24.7653 100.279 24.936 99.532 25.064C98.8067 25.192 98.124 25.256 97.484 25.256C95.628 25.256 93.9533 24.968 92.46 24.392C90.988 23.816 89.7187 23.016 88.652 21.992C87.6067 20.968 86.796 19.7627 86.22 18.376C85.6653 16.9893 85.388 15.4853 85.388 13.864C85.388 11.944 85.6973 10.2267 86.316 8.712C86.956 7.176 87.82 5.88533 88.908 4.84C90.0173 3.77333 91.2867 2.97333 92.716 2.44C94.1453 1.88533 95.66 1.608 97.26 1.608C98.604 1.608 99.852 1.768 101.004 2.088C102.156 2.408 103.169 2.81333 104.044 3.304L102.988 6.152C102.561 5.896 102.028 5.66133 101.388 5.448C100.769 5.23467 100.129 5.064 99.468 4.936C98.8067 4.78667 98.188 4.712 97.612 4.712C96.2467 4.712 95.0093 4.92533 93.9 5.352C92.7907 5.75733 91.8413 6.35467 91.052 7.144C90.2627 7.912 89.6547 8.85067 89.228 9.96C88.8013 11.048 88.588 12.2747 88.588 13.64C88.588 14.8987 88.8013 16.0507 89.228 17.096C89.6547 18.1413 90.2627 19.048 91.052 19.816C91.8413 20.5627 92.78 21.1493 93.868 21.576C94.9773 21.9813 96.1933 22.184 97.516 22.184C98.3053 22.184 99.084 22.1093 99.852 21.96C100.62 21.7893 101.281 21.5547 101.836 21.256V16.648H97.228V13.672H104.94V23.016ZM108.971 18.248C108.971 16.9253 109.281 15.7307 109.899 14.664C110.539 13.5973 111.414 12.7547 112.523 12.136C113.633 11.5173 114.891 11.208 116.299 11.208C117.75 11.208 119.019 11.5173 120.107 12.136C121.195 12.7547 122.038 13.5973 122.635 14.664C123.233 15.7307 123.531 16.9253 123.531 18.248C123.531 19.5707 123.233 20.776 122.635 21.864C122.038 22.9307 121.185 23.7733 120.075 24.392C118.987 25.0107 117.718 25.32 116.267 25.32C114.859 25.32 113.601 25.032 112.491 24.456C111.403 23.8587 110.539 23.0373 109.899 21.992C109.281 20.9253 108.971 19.6773 108.971 18.248ZM111.947 18.28C111.947 19.1333 112.139 19.912 112.523 20.616C112.907 21.2987 113.419 21.8427 114.059 22.248C114.721 22.6533 115.446 22.856 116.235 22.856C117.067 22.856 117.803 22.6533 118.443 22.248C119.105 21.8427 119.617 21.2987 119.979 20.616C120.342 19.912 120.523 19.1333 120.523 18.28C120.523 17.4267 120.342 16.6587 119.979 15.976C119.617 15.272 119.105 14.7173 118.443 14.312C117.803 13.8853 117.067 13.672 116.235 13.672C115.425 13.672 114.689 13.8853 114.027 14.312C113.387 14.7387 112.875 15.304 112.491 16.008C112.129 16.6907 111.947 17.448 111.947 18.28Z" fill="#0BD366"/>
    </symbol>

    // burger
    <symbol width="45" height="45" viewBox="0 0 45 45" fill="none" xmlns="http://www.w3.org/2000/svg" id="burger">
        <g clip-path="url(#clip0_37_45)">
        <path d="M39.375 14.0625H5.625C5.25204 14.0625 4.89435 13.9143 4.63063 13.6506C4.36691 13.3869 4.21875 13.0292 4.21875 12.6562C4.21875 12.2833 4.36691 11.9256 4.63063 11.6619C4.89435 11.3982 5.25204 11.25 5.625 11.25H39.375C39.748 11.25 40.1056 11.3982 40.3694 11.6619C40.6331 11.9256 40.7812 12.2833 40.7812 12.6562C40.7812 13.0292 40.6331 13.3869 40.3694 13.6506C40.1056 13.9143 39.748 14.0625 39.375 14.0625Z" fill="black"/>
        <path d="M39.375 23.9062H5.625C5.25204 23.9062 4.89435 23.7581 4.63063 23.4944C4.36691 23.2306 4.21875 22.873 4.21875 22.5C4.21875 22.127 4.36691 21.7694 4.63063 21.5056C4.89435 21.2419 5.25204 21.0938 5.625 21.0938H39.375C39.748 21.0938 40.1056 21.2419 40.3694 21.5056C40.6331 21.7694 40.7812 22.127 40.7812 22.5C40.7812 22.873 40.6331 23.2306 40.3694 23.4944C40.1056 23.7581 39.748 23.9062 39.375 23.9062Z" fill="black"/>
        <path d="M39.375 33.75H5.625C5.25204 33.75 4.89435 33.6018 4.63063 33.3381C4.36691 33.0744 4.21875 32.7167 4.21875 32.3438C4.21875 31.9708 4.36691 31.6131 4.63063 31.3494C4.89435 31.0857 5.25204 30.9375 5.625 30.9375H39.375C39.748 30.9375 40.1056 31.0857 40.3694 31.3494C40.6331 31.6131 40.7812 31.9708 40.7812 32.3438C40.7812 32.7167 40.6331 33.0744 40.3694 33.3381C40.1056 33.6018 39.748 33.75 39.375 33.75Z" fill="black"/>
        </g>
        <defs>
        <clipPath id="clip0_37_45">
        <rect width="45" height="45" fill="white"/>
        </clipPath>
        </defs>
    </symbol>

    // stat_user
    <symbol width="37" height="38" viewBox="0 0 37 38" fill="none" xmlns="http://www.w3.org/2000/svg" id="stat_user">
        <rect y="0.5" width="37" height="37" rx="18.5" fill="#0BD366" fill-opacity="0.37"/>
        <path d="M18.5 19C21.2614 19 23.5 16.7614 23.5 14C23.5 11.2386 21.2614 9 18.5 9C15.7386 9 13.5 11.2386 13.5 14C13.5 16.7614 15.7386 19 18.5 19Z" fill="#0BD366"/>
        <path d="M18.5 21.5C13.49 21.5 9.40997 24.86 9.40997 29C9.40997 29.28 9.62997 29.5 9.90997 29.5H27.09C27.37 29.5 27.59 29.28 27.59 29C27.59 24.86 23.51 21.5 18.5 21.5Z" fill="#0BD366"/>
    </symbol>

    // stat_car
    <svg width="37" height="38" viewBox="0 0 37 38" fill="none" xmlns="http://www.w3.org/2000/svg" id="stat_car">
        <rect y="0.5" width="37" height="37" rx="18.5" fill="#A5EFC7"/>
        <path d="M30.203 18.0315H30.1875L28.125 15.2815V15.266L28.1095 15.25C27.6485 14.6935 26.957 14 26 14H22C21.8225 14 21.658 14.037 21.5 14.094C21.1365 14.2815 20.498 14.7165 20.5 15.4535V20V20.475V21H19.5V15.5C19.5 15.224 19.276 15 19 15H17V9.5C17 9.224 16.776 9 16.5 9H10.5C10.224 9 10 9.224 10 9.5V15H8C7.724 15 7.5 15.224 7.5 15.5V21H6.5C6.224 21 6 21.224 6 21.5V24.5C6 25.603 6.897 26.5 8 26.5H10.045C10.284 27.9165 11.516 29 13 29C14.484 29 15.7155 27.9165 15.955 26.5H22.547C22.7855 27.918 24.0175 29 25.5 29C26.98 29 28.2145 27.914 28.4545 26.5H28.5H29H29.5C30.33 26.5 31 25.83 31 25V20.1875C31 19.043 30.203 18.0315 30.203 18.0315ZM28.172 17L29.391 18.625C29.391 18.625 29.844 19.4005 29.938 20H25C24.916 20 24.781 19.9375 24.672 19.828C24.563 19.7185 24.5 19.584 24.5 19.5V17.5C24.5 17.248 24.797 17 25 17H28.172ZM18.5 21H13.5V16H18.5V21ZM11 10H16V15H14H13H11V10ZM8.5 16H10.5H12.5V21H8.5V16ZM13 28C11.897 28 11 27.103 11 26C11 24.897 11.897 24 13 24C14.103 24 15 24.897 15 26C15 27.103 14.103 28 13 28ZM25.5 28C24.3885 28 23.5 27.1115 23.5 26C23.5 24.8885 24.3885 24 25.5 24C26.6115 24 27.5 24.8885 27.5 26C27.5 27.1115 26.6115 28 25.5 28ZM30 25C30 25.1875 29.6875 25.5 29.5 25.5H29H28.5H28.4545C28.2145 24.086 26.9795 23 25.5 23C24.0175 23 22.785 24.082 22.547 25.5H22.5H15.955C15.716 24.0835 14.484 23 13 23C11.516 23 10.2845 24.0835 10.045 25.5H8C7.4485 25.5 7 25.0515 7 24.5V22H8H13H14H19H21C21.276 22 21.5 21.776 21.5 21.5V20.475V19.5V15.5C21.5 15.3125 21.8125 15 22 15H26C26.3925 15 26.9455 15.42 27.328 15.875C27.332 15.881 27.3395 15.885 27.3435 15.8905L27.422 16H25C24.203 16 23.5 16.6445 23.5 17.5V19.5C23.5 19.916 23.6875 20.2815 23.953 20.547C24.2185 20.8125 24.584 21 25 21H30V25Z" fill="#0BD366"/>
    </svg>

    // stat_order
    <svg width="37" height="38" viewBox="0 0 37 38" fill="none" xmlns="http://www.w3.org/2000/svg" id="stat_order">
        <rect y="0.5" width="37" height="37" rx="18.5" fill="#A5EFC7"/>
        <path d="M30.5182 11.4885L18.6533 6.53646C18.5361 6.48785 18.4063 6.48785 18.2891 6.53646L6.34133 11.5231C6.13158 11.5911 5.87796 11.9602 6.06558 12.338V26.3207C6.06558 26.5677 6.20608 26.7871 6.41558 26.868L18.1725 31.391C18.2423 31.4357 18.2961 31.475 18.4193 31.4932C18.592 31.5187 18.7022 31.4644 18.7022 31.4644L30.6499 26.868C30.8594 26.7871 31 26.5677 31 26.3207V12.0653C31.0043 11.7879 30.7124 11.5652 30.5182 11.4885ZM28.9376 12.0653L18.5023 16.421L15.3707 15.1142L25.3098 10.5511L28.9376 12.0653ZM23.8807 9.95459L13.4363 14.7495L13.1792 17.5342L11.2347 16.6612V14.0766L22.0673 9.19767L23.8807 9.95459ZM18.4712 7.69676L20.6286 8.59718L10.5885 13.1183L8.03539 12.0525L18.4712 7.69676ZM7.10458 12.9262L10.1958 14.2165V17.4426L14.0714 19.1831L14.3692 15.958L18.0134 17.4791V30.1046L7.10458 25.9079V12.9262ZM29.9611 25.9079L19.0523 30.1045V17.4534L29.9611 12.9005V25.9079Z" fill="#0BD366"/>
    </svg>

    // green checkmark
    <symbol width="24" height="24" viewBox="0 0 24 24" fill="none" xmlns="http://www.w3.org/2000/svg" id="checkmark">
        <path d="M12 2C6.49 2 2 6.49 2 12C2 17.51 6.49 22 12 22C17.51 22 22 17.51 22 12C22 6.49 17.51 2 12 2ZM16.78 9.7L11.11 15.37C10.97 15.51 10.78 15.59 10.58 15.59C10.38 15.59 10.19 15.51 10.05 15.37L7.22 12.54C6.93 12.25 6.93 11.77 7.22 11.48C7.51 11.19 7.99 11.19 8.28 11.48L10.58 13.78L15.72 8.64C16.01 8.35 16.49 8.35 16.78 8.64C17.07 8.93 17.07 9.4 16.78 9.7Z" fill="#2BBC28"/>
    </symbol>

    // email
    <symbol width="37" height="38" viewBox="0 0 37 38" fill="none" xmlns="http://www.w3.org/2000/svg" id="email">
        <rect y="0.5" width="37" height="37" rx="18.5" fill="#0BD366" fill-opacity="0.37"/>
        <path d="M9.61111 25L15.1667 19M27.3889 25L21.8333 19M8.5 15L16.5278 19.8166C17.2406 20.2443 17.5969 20.4582 17.9821 20.5412C18.3226 20.6147 18.6774 20.6147 19.0179 20.5412C19.4031 20.4582 19.7594 20.2443 20.4722 19.8166L28.5 15M12.0556 26H24.9444C26.189 26 26.8113 26 27.2867 25.782C27.7048 25.5903 28.0448 25.2843 28.2578 24.908C28.5 24.4802 28.5 23.9201 28.5 22.8V15.2C28.5 14.0799 28.5 13.5198 28.2578 13.092C28.0448 12.7157 27.7048 12.4097 27.2867 12.218C26.8113 12 26.189 12 24.9444 12H12.0556C10.811 12 10.1887 12 9.71336 12.218C9.29521 12.4097 8.95526 12.7157 8.74221 13.092C8.5 13.5198 8.5 14.0799 8.5 15.2V22.8C8.5 23.9201 8.5 24.4802 8.74221 24.908C8.95526 25.2843 9.29521 25.5903 9.71336 25.782C10.1887 26 10.811 26 12.0556 26Z" stroke="#0BD366" stroke-linecap="round" stroke-linejoin="round"/>
    </symbol>

    // phone
    <symbol width="37" height="38" viewBox="0 0 37 38" fill="none" xmlns="http://www.w3.org/2000/svg" id="phone">
        <rect y="0.5" width="37" height="37" rx="18.5" fill="#A5EFC7"/>
        <path d="M8.5 12.8611C8.5 20.9459 16.2107 27.5 25.7222 27.5C26.1513 27.5 26.5768 27.4867 26.9981 27.4604C27.4816 27.4303 27.7232 27.4153 27.9433 27.3076C28.1256 27.2185 28.2983 27.0604 28.3897 26.8993C28.5 26.705 28.5 26.4782 28.5 26.0248V23.364C28.5 22.9826 28.5 22.7919 28.4261 22.6286C28.361 22.4841 28.255 22.3556 28.1177 22.2542C27.9622 22.1393 27.7513 22.0742 27.3298 21.9438L23.7667 20.8425C23.2761 20.6909 23.0308 20.6151 22.7981 20.6279C22.5929 20.6393 22.3954 20.6989 22.2277 20.7999C22.0374 20.9145 21.9032 21.1047 21.6347 21.4852L20.7222 22.7778C17.7779 21.6443 15.391 19.6128 14.0556 17.1111L15.5763 16.3356C16.0238 16.1073 16.2476 15.9932 16.3824 15.8314C16.5013 15.6889 16.5714 15.521 16.5848 15.3466C16.5999 15.1488 16.5107 14.9403 16.3323 14.5234L15.0367 11.4947C14.8833 11.1363 14.8067 10.9571 14.6716 10.825C14.5522 10.7082 14.401 10.6182 14.2311 10.5628C14.0388 10.5 13.8145 10.5 13.3659 10.5H10.2356C9.70209 10.5 9.43534 10.5 9.20664 10.5937C9.01722 10.6714 8.83127 10.8183 8.72633 10.9732C8.59964 11.1602 8.58194 11.3657 8.54654 11.7766C8.5157 12.1347 8.5 12.4963 8.5 12.8611Z" stroke="#0BD366" stroke-linecap="round" stroke-linejoin="round"/>
    </symbol>

    // tg
    <symbol width="37" height="38" viewBox="0 0 37 38" fill="none" xmlns="http://www.w3.org/2000/svg" id="icon-tg">
        <rect y="0.5" width="37" height="37" rx="18.5" fill="#A5EFC7"/>
        <path fill-rule="evenodd" clip-rule="evenodd" d="M28.4615 12.5276C28.7493 11.2211 27.3712 10.1354 26.0352 10.616L9.65816 16.508C8.16616 17.0447 8.09968 18.9875 9.55194 19.6116L13.1184 21.1444L14.815 26.6737C14.9031 26.9609 15.1479 27.1833 15.4584 27.2582C15.769 27.3331 16.0989 27.2495 16.3257 27.0382L18.9392 24.6046L22.6001 27.1614C23.6628 27.9035 25.1934 27.363 25.4603 26.1513L28.4615 12.5276ZM10.3107 18.0807L26.6878 12.1888L23.6865 25.8125L19.3974 22.8171C19.037 22.5654 18.5327 22.5988 18.2141 22.8954L17.0947 23.9377L17.431 22.2153L24.0212 16.0789C24.3419 15.7802 24.3758 15.3067 24.1005 14.9711C23.8251 14.6354 23.3257 14.5413 22.9318 14.7508L13.8307 19.5934L10.3107 18.0807ZM14.9404 20.9449L15.4894 22.7341L15.7001 21.6546C15.7331 21.486 15.8205 21.3306 15.9507 21.2094L17.9605 19.338L14.9404 20.9449Z" fill="#0BD366"/>
    </symbol>

    // vk
    <symbol width="38" height="38" viewBox="0 0 38 38" fill="none" xmlns="http://www.w3.org/2000/svg" id="icon-vk">
        <rect x="0.5" y="0.5" width="37" height="37" rx="18.5" fill="#A5EFC7"/>
        <path d="M10.8095 10.8095L10.4712 10.4744L10.4752 10.4704L10.8095 10.8095ZM10.8095 27.1905L10.4744 27.5288L10.4704 27.5248L10.8095 27.1905ZM27.1905 27.1905L27.5289 27.5256L27.5249 27.5296L27.1905 27.1905ZM27.1905 10.8095L27.5256 10.4712L27.5296 10.4752L27.1905 10.8095ZM12.6889 15.273L12.2128 15.2828C12.2102 15.1548 12.2592 15.0312 12.3487 14.9398C12.4383 14.8483 12.5609 14.7968 12.6889 14.7968V15.273ZM19.8635 23.1969H20.3397C20.3397 23.4598 20.1265 23.673 19.8635 23.673V23.1969ZM19.8635 20.365H19.3873C19.3873 20.2306 19.4442 20.1024 19.5439 20.0121C19.6436 19.9218 19.7768 19.8779 19.9107 19.8912L19.8635 20.365ZM23.1461 23.1969V23.673C22.939 23.673 22.7558 23.5393 22.6927 23.3422L23.1461 23.1969ZM25.4 23.1969L25.8597 23.0726C25.8984 23.2156 25.8683 23.3686 25.7782 23.4863C25.688 23.604 25.5483 23.673 25.4 23.673V23.1969ZM22.1428 19.2222L21.9307 19.6486C21.7755 19.5712 21.6745 19.4157 21.6671 19.2425C21.6597 19.0692 21.7471 18.9057 21.8952 18.8155L22.1428 19.2222ZM24.9238 15.2667V14.7905C25.0668 14.7905 25.2023 14.8548 25.2928 14.9656C25.3832 15.0764 25.419 15.222 25.3904 15.3621L24.9238 15.2667ZM22.8794 15.2667L22.4211 15.1373C22.479 14.9322 22.6662 14.7905 22.8794 14.7905V15.2667ZM19.8635 18.4031L19.914 18.8767C19.7797 18.891 19.6456 18.8476 19.5451 18.7573C19.4446 18.667 19.3873 18.5383 19.3873 18.4031H19.8635ZM19.8635 15.273V14.7968C20.1265 14.7968 20.3397 15.01 20.3397 15.273H19.8635ZM17.8127 15.273H17.3365C17.3365 15.01 17.5497 14.7968 17.8127 14.7968V15.273ZM17.8127 20.7588H18.2889C18.2889 20.9053 18.2213 21.0438 18.1058 21.1341C17.9902 21.2243 17.8395 21.2563 17.6972 21.2207L17.8127 20.7588ZM14.873 15.273V14.7968C15.1324 14.7968 15.3441 15.0045 15.3491 15.2639L14.873 15.273ZM9 18.619C9 16.4769 8.999 14.8234 9.17088 13.5392C9.34458 12.2414 9.70254 11.2504 10.4712 10.4744L11.1478 11.1446C10.5832 11.7147 10.2745 12.4729 10.1148 13.6656C9.95338 14.8719 9.95238 16.4501 9.95238 18.619H9ZM9 19.381V18.619H9.95238V19.381H9ZM10.4704 27.5248C9.70253 26.7459 9.34459 25.754 9.17088 24.456C8.999 23.1719 9 21.52 9 19.381H9.95238C9.95238 21.5467 9.95338 23.1233 10.1148 24.3297C10.2745 25.5222 10.5832 26.2827 11.1486 26.8562L10.4704 27.5248ZM18.619 29C16.4769 29 14.8234 29.001 13.5392 28.8291C12.2413 28.6554 11.2504 28.2974 10.4744 27.5288L11.1446 26.8522C11.7147 27.4169 12.4729 27.7255 13.6656 27.8851C14.8719 28.0466 16.4501 28.0476 18.619 28.0476V29ZM19.3809 29H18.619V28.0476H19.3809V29ZM27.5249 27.5296C26.746 28.2975 25.754 28.6554 24.4561 28.8291C23.1719 29.001 21.52 29 19.3809 29V28.0476C21.5467 28.0476 23.1234 28.0466 24.3297 27.8851C25.5223 27.7255 26.2827 27.4168 26.8562 26.8513L27.5249 27.5296ZM29 19.381C29 21.5231 29.001 23.1767 28.8291 24.4608C28.6554 25.7587 28.2975 26.7496 27.5289 27.5256L26.8522 26.8553C27.4169 26.2853 27.7256 25.527 27.8852 24.3345C28.0467 23.1281 28.0476 21.5499 28.0476 19.381H29ZM29 18.619V19.381H28.0476V18.619H29ZM27.5296 10.4752C28.2975 11.2541 28.6554 12.246 28.8291 13.544C29.001 14.8281 29 16.48 29 18.619H28.0476C28.0476 16.4533 28.0467 14.8766 27.8852 13.6703C27.7256 12.4778 27.4169 11.7174 26.8514 11.1438L27.5296 10.4752ZM19.3809 9C21.5231 9 23.1767 8.999 24.4608 9.17088C25.7587 9.34458 26.7496 9.70253 27.5256 10.4712L26.8554 11.1478C26.2853 10.5832 25.5271 10.2745 24.3345 10.1148C23.1282 9.95338 21.5499 9.95238 19.3809 9.95238V9ZM18.619 9H19.3809V9.95238H18.619V9ZM10.4752 10.4704C11.2541 9.70252 12.246 9.3446 13.544 9.17088C14.8281 8.999 16.4801 9 18.619 9V9.95238C16.4533 9.95238 14.8766 9.95338 13.6703 10.1148C12.4778 10.2744 11.7174 10.5832 11.1439 11.1486L10.4752 10.4704ZM19.6095 23.673C17.3217 23.673 15.4767 22.8855 14.1981 21.403C12.929 19.9316 12.2651 17.8304 12.2128 15.2828L13.165 15.2632C13.2143 17.668 13.8392 19.5287 14.9193 20.781C15.99 22.0224 17.5545 22.7207 19.6095 22.7207V23.673ZM19.6159 23.673H19.6095V22.7207H19.6159V23.673ZM19.8635 23.673H19.6159V22.7207H19.8635V23.673ZM20.3397 20.365V23.1969H19.3873V20.365H20.3397ZM22.6927 23.3422C22.2565 21.9821 21.1863 20.9753 19.8163 20.839L19.9107 19.8912C21.728 20.0723 23.0706 21.402 23.5995 23.0514L22.6927 23.3422ZM25.4 23.673H23.1461V22.7207H25.4V23.673ZM24.5659 20.5585C25.17 21.2956 25.6109 22.1525 25.8597 23.0726L24.9404 23.3211C24.7268 22.531 24.3481 21.7951 23.8292 21.1622L24.5659 20.5585ZM22.355 18.7959C23.2083 19.2206 23.9618 19.8213 24.5659 20.5585L23.8292 21.1622C23.3105 20.5291 22.6634 20.0132 21.9307 19.6486L22.355 18.7959ZM24.3352 17.8082C23.819 18.5424 23.157 19.1622 22.3906 19.629L21.8952 18.8155C22.5499 18.4169 23.1152 17.8874 23.5561 17.2605L24.3352 17.8082ZM25.3904 15.3621C25.2106 16.2413 24.8513 17.074 24.3352 17.8082L23.5561 17.2605C23.9969 16.6334 24.3037 15.9222 24.4573 15.1713L25.3904 15.3621ZM22.8794 14.7905H24.9238V15.7429H22.8794V14.7905ZM19.813 17.9297C20.2859 17.8792 20.8311 17.571 21.3286 17.0474C21.8197 16.5304 22.2207 15.847 22.4211 15.1373L23.3377 15.396C23.0935 16.2609 22.6121 17.0791 22.0191 17.7033C21.4324 18.321 20.692 18.7937 19.914 18.8767L19.813 17.9297ZM20.3397 15.273V18.4031H19.3873V15.273H20.3397ZM17.8127 14.7968H19.8635V15.7492H17.8127V14.7968ZM17.3365 20.7588V15.273H18.2889V20.7588H17.3365ZM15.3491 15.2639C15.4164 18.7644 16.9385 20.0493 17.9282 20.2968L17.6972 21.2207C16.1472 20.8332 14.4693 19.0451 14.3969 15.2822L15.3491 15.2639ZM12.6889 14.7968H14.873V15.7492H12.6889V14.7968Z" fill="#0BD366"/>
    </symbol>

    // eye open
    <symbol width="30" height="20" viewBox="0 0 30 20" fill="none" xmlns="http://www.w3.org/2000/svg" id="eye_open">
        <path fill-rule="evenodd" clip-rule="evenodd" d="M7.11764 14.4714C5.01079 12.8355 3.50596 10.9657 2.79999 10C3.50596 9.03425 5.01079 7.16448 7.11764 5.52868C9.29282 3.83981 11.9786 2.5 15 2.5C18.0213 2.5 20.7073 3.83981 22.8824 5.52868C24.9893 7.16448 26.4941 9.03425 27.2001 10C26.4941 10.9657 24.9893 12.8355 22.8824 14.4714C20.7073 16.1602 18.0213 17.5 15 17.5C11.9786 17.5 9.29282 16.1602 7.11764 14.4714ZM15 0C11.0544 0 7.74797 1.74328 5.31482 3.63244C2.87283 5.52845 1.17824 7.672 0.42618 8.71225C-0.14206 9.49813 -0.14206 10.5019 0.42618 11.2878C1.17824 12.328 2.87283 14.4715 5.31482 16.3676C7.74797 18.2568 11.0544 20 15 20C18.9456 20 22.252 18.2568 24.6853 16.3676C27.1272 14.4715 28.8218 12.328 29.5738 11.2878C30.1421 10.5019 30.1421 9.49813 29.5738 8.71225C28.8218 7.672 27.1272 5.52845 24.6853 3.63244C22.252 1.74328 18.9456 0 15 0ZM12.2335 10C12.2335 8.61925 13.4722 7.5 15 7.5C16.5279 7.5 17.7664 8.61925 17.7664 10C17.7664 11.3807 16.5279 12.5 15 12.5C13.4722 12.5 12.2335 11.3807 12.2335 10ZM15 5C11.9443 5 9.46714 7.23857 9.46714 10C9.46714 12.7614 11.9443 15 15 15C18.0558 15 20.5328 12.7614 20.5328 10C20.5328 7.23857 18.0558 5 15 5Z" fill="#5A5A5A"/>
    </symbol>

    // eye close
    <symbol width="30" height="20" viewBox="0 0 30 20" fill="none" xmlns="http://www.w3.org/2000/svg" id="eye_close">
        <path fill-rule="evenodd" clip-rule="evenodd" d="M25.6606 2.13389C26.2007 1.64572 26.2007 0.854275 25.6606 0.366113C25.1204 -0.122037 24.2446 -0.122037 23.7044 0.366113L17.8107 5.69227C16.987 5.25241 16.026 5 15 5C11.9442 5 9.46708 7.23857 9.46708 10C9.46708 10.9273 9.74639 11.7956 10.2331 12.54L4.33933 17.8661C3.79916 18.3543 3.79916 19.1457 4.33933 19.6339C4.87952 20.122 5.75532 20.122 6.29551 19.6339L12.1893 14.3078C13.013 14.7476 13.9739 15 15 15C18.0556 15 20.5328 12.7614 20.5328 10C20.5328 9.07275 20.2536 8.20437 19.7668 7.46004L25.6606 2.13389ZM15.7165 7.58463C15.488 7.5295 15.2478 7.5 15 7.5C13.4721 7.5 12.2335 8.61925 12.2335 10C12.2335 10.224 12.2662 10.441 12.3272 10.6475L15.7165 7.58463ZM14.2834 12.4154L17.6728 9.3525C17.7338 9.559 17.7664 9.776 17.7664 10C17.7664 11.3807 16.5279 12.5 15 12.5C14.7521 12.5 14.512 12.4705 14.2834 12.4154ZM20.2079 1.02588C18.636 0.400613 16.8915 0 15 0C11.0544 0 7.74797 1.74328 5.31482 3.63244C2.87283 5.52845 1.17824 7.672 0.42618 8.71225C-0.14206 9.49812 -0.14206 10.5019 0.42618 11.2878C1.06093 12.1658 2.3671 13.8296 4.22736 15.4674L6.18368 13.6995C4.56426 12.2786 3.39674 10.8164 2.79999 10C3.50596 9.03425 5.01079 7.16448 7.11764 5.52868C9.29282 3.83981 11.9786 2.5 15 2.5C16.0677 2.5 17.0935 2.66731 18.0697 2.95823L20.2079 1.02588ZM15 17.5C13.9324 17.5 12.9066 17.3326 11.9304 17.0417L9.79208 18.9741C11.364 19.5994 13.1085 20 15 20C18.9456 20 22.252 18.2568 24.6853 16.3676C27.1272 14.4715 28.8218 12.328 29.5738 11.2878C30.1421 10.5019 30.1421 9.49812 29.5738 8.71225C28.9391 7.83425 27.6329 6.17034 25.7726 4.53264L23.8163 6.30054C25.4358 7.72138 26.6034 9.18362 27.2001 10C26.4941 10.9657 24.9893 12.8355 22.8824 14.4714C20.7073 16.1602 18.0213 17.5 15 17.5Z" fill="#5A5A5A"/>
    </symbol>
    
    // profile
    <symbol width="19" height="24" viewBox="0 0 19 24" fill="none" xmlns="http://www.w3.org/2000/svg" id="profile">
        <path d="M9.3036 11.8545C7.7216 11.8545 5.95294 11.6795 4.8236 10.3892C3.87394 9.30416 3.56711 7.6265 3.88444 5.26517C4.32777 1.96817 6.35311 0 9.30477 0C12.2564 0 14.2829 1.96817 14.7251 5.26517C15.0424 7.6265 14.7344 9.30183 13.7848 10.3892C12.6531 11.6795 10.8856 11.8533 9.30477 11.8533L9.3036 11.8545ZM16.1274 23.3462H2.47977C1.70627 23.3462 1.02144 23.0195 0.554775 22.4292C0.0624418 21.8062 -0.117225 20.9475 0.076442 20.1332C1.04944 16.0148 4.84344 13.1367 9.30244 13.1367C13.7614 13.1367 17.5554 16.0137 18.5308 20.1332C18.7221 20.9475 18.5424 21.8062 18.0501 22.428C17.5834 23.0172 16.9009 23.3438 16.1274 23.3438V23.3462Z" fill="black"/>
    </symbol>

    // home
    <symbol width="26" height="26" viewBox="0 0 26 26" fill="none" xmlns="http://www.w3.org/2000/svg" id="home">
        <path d="M25 13.2447V15.07C25 19.751 25 22.0916 23.5941 23.5457C22.1883 25 19.9254 25 15.4 25H10.6C6.07451 25 3.81178 25 2.40588 23.5457C1 22.0916 1 19.751 1 15.07V13.2447C1 10.4986 1 9.12554 1.62304 7.98729C2.24608 6.84905 3.38434 6.14261 5.66084 4.72976L8.06084 3.24024C10.4673 1.74675 11.6705 1 13 1C14.3295 1 15.5327 1.74675 17.9392 3.24024L20.3392 4.72974C22.6157 6.14261 23.7539 6.84905 24.377 7.98729" stroke="black" stroke-width="1.5" stroke-linecap="round" />
        <path d="M16.5 19H9" stroke="black" stroke-width="1.5" stroke-linecap="round" />
    </symbol>

    // order
    <symbol width="24" height="25" viewBox="0 0 24 25" fill="none" xmlns="http://www.w3.org/2000/svg" id="order">
        <path d="M5.64014 11.5909H18.3841V12.8306H5.64014V11.5909ZM5.64014 17.0455H13.4401V18.2852H5.64014V17.0455Z" fill="black" />
        <path d="M21.192 25H2.808C2.424 25 2.064 24.9381 1.704 24.8141C1.368 24.6901 1.056 24.5248 0.816 24.2976C0.552 24.0703 0.36 23.8224 0.216 23.5331C0.0719999 23.2232 0 22.9133 0 22.5827V6.11575C0 5.78517 0.0719999 5.47526 0.216 5.16534C0.36 4.87608 0.552 4.60749 0.816 4.40087C1.08 4.1736 1.368 4.00831 1.704 3.88435C2.064 3.76038 2.424 3.6984 2.808 3.6984H5.592V4.9174H2.808C2.04 4.9174 1.392 5.45459 1.392 6.13641V22.6034C1.392 23.2645 2.016 23.8224 2.808 23.8224H21.168C21.936 23.8224 22.584 23.2852 22.584 22.6034V6.11575C22.584 5.45459 21.96 4.89674 21.168 4.89674H18.408V3.67773H21.192C21.576 3.67773 21.936 3.73972 22.296 3.86368C22.632 3.98765 22.944 4.15294 23.184 4.38021C23.448 4.60749 23.64 4.85542 23.784 5.14468C23.928 5.45459 24 5.76451 24 6.09509V22.562C24 22.8926 23.928 23.2025 23.784 23.5124C23.64 23.8017 23.448 24.0703 23.184 24.2769C22.92 24.5042 22.632 24.6695 22.296 24.7934C21.936 24.9381 21.576 25 21.192 25Z" fill="black" />
        <path d="M19.0558 7.33471H4.94385V3.36777C4.94385 2.52066 5.73585 1.83884 6.71985 1.83884H8.54385C9.19185 0.723141 10.5358 0 12.0238 0C13.5118 0 14.8558 0.723141 15.5038 1.83884H17.3278C18.3118 1.83884 19.1038 2.52066 19.1038 3.36777L19.0558 7.33471ZM6.35985 6.1157H17.6638V3.36777C17.6638 3.20248 17.4958 3.05785 17.3038 3.05785H14.4958L14.3278 2.64463C13.9918 1.79752 13.0558 1.21901 11.9998 1.21901C10.9438 1.21901 10.0078 1.79752 9.67185 2.64463L9.50385 3.05785H6.69585C6.50385 3.05785 6.33585 3.20248 6.33585 3.36777V6.1157H6.35985Z" fill="black" />
    </symbol>

    // setting
    <symbol width="25" height="25" viewBox="0 0 25 25" fill="none" xmlns="http://www.w3.org/2000/svg" id="setting">
        <path d="M25 0H0V25H25V0Z" fill="white" fill-opacity="0.01" />
        <path d="M21.6145 5.20837H18.4895" stroke="black" stroke-width="1.5" stroke-linecap="round" stroke-linejoin="round" />
        <path d="M14.323 3.125V7.29167" stroke="black" stroke-width="1.5" stroke-linecap="round" stroke-linejoin="round" />
        <path d="M14.3228 5.20837H2.8645" stroke="black" stroke-width="1.5" stroke-linecap="round" stroke-linejoin="round" />
        <path d="M7.03117 12.5H2.8645" stroke="black" stroke-width="1.5" stroke-linecap="round" stroke-linejoin="round" />
        <path d="M11.198 10.4166V14.5833" stroke="black" stroke-width="1.5" stroke-linecap="round" stroke-linejoin="round" />
        <path d="M22.6563 12.5H11.198" stroke="black" stroke-width="1.5" stroke-linecap="round" stroke-linejoin="round" />
        <path d="M21.6145 19.7916H18.4895" stroke="black" stroke-width="1.5" stroke-linecap="round" stroke-linejoin="round" />
        <path d="M14.323 17.7084V21.875" stroke="black" stroke-width="1.5" stroke-linecap="round" stroke-linejoin="round" />
        <path d="M14.3228 19.7916H2.8645" stroke="black" stroke-width="1.5" stroke-linecap="round" stroke-linejoin="round" />
    </symbol>

    // logout
    <symbol width="26" height="26" viewBox="0 0 26 26" fill="none" xmlns="http://www.w3.org/2000/svg" id="logout">
        <path d="M10 13H25M25 13L20.5 8.5M25 13L20.5 17.5" stroke="black" stroke-width="2" stroke-linecap="round" stroke-linejoin="round" />
        <path d="M1 13C1 6.37258 6.37258 1 13 1M13 25C9.21043 25 5.83113 23.2433 3.63195 20.5" stroke="black" stroke-width="2" stroke-linecap="round" />
    </symbol>

    // detail order
    <svg width="27" height="22" viewBox="0 0 27 22" fill="none" xmlns="http://www.w3.org/2000/svg" id="detail_order">
        <path opacity="0.6" d="M1 11H4.90625M26 11L16.625 1M26 11L16.625 21M26 11H9.59375" stroke="black" stroke-width="2" stroke-linecap="round" stroke-linejoin="round" />
    </svg>

    // search
    <svg width="16" height="16" viewBox="0 0 16 16" fill="none" xmlns="http://www.w3.org/2000/svg" id="search">
        <path d="M7.33333 12.6667C10.2789 12.6667 12.6667 10.2789 12.6667 7.33333C12.6667 4.38781 10.2789 2 7.33333 2C4.38781 2 2 4.38781 2 7.33333C2 10.2789 4.38781 12.6667 7.33333 12.6667Z" stroke="#343434" stroke-width="1.2" stroke-linecap="round" stroke-linejoin="round" />
        <path d="M13.9996 14.0001L11.0996 11.1001" stroke="#343434" stroke-width="1.2" stroke-linecap="round" stroke-linejoin="round" />
    </svg>

    // dashboard_order
    <svg width="24" height="24" viewBox="0 0 24 24" fill="none" xmlns="http://www.w3.org/2000/svg" id="dashboard_order">
        <path d="M4.125 13.4318V4.875C4.125 4.67609 4.20402 4.48532 4.34467 4.34467C4.48532 4.20402 4.67609 4.125 4.875 4.125H19.125C19.3239 4.125 19.5147 4.20402 19.6553 4.34467C19.796 4.48532 19.875 4.67609 19.875 4.875V19.125C19.875 19.3239 19.796 19.5147 19.6553 19.6553C19.5147 19.796 19.3239 19.875 19.125 19.875H12.7159" stroke="black" stroke-width="1.5" stroke-linecap="round" stroke-linejoin="round" />
        <path d="M12 14.25L6 20.25L3 17.25" stroke="black" stroke-width="1.5" stroke-linecap="round" stroke-linejoin="round" />
    </svg>

    // dashboard_driver
    <svg width="25" height="25" viewBox="0 0 25 25" fill="none" xmlns="http://www.w3.org/2000/svg" id="dashboard_driver">
    <g clip-path="url(#clip0_138_74)">
        <path d="M11.6211 -0.941406C11.5283 -0.931641 11.2402 -0.897461 10.9863 -0.873047C9.375 -0.697266 7.59277 -0.0917969 6.15234 0.767578C4.32129 1.86133 2.83203 3.35059 1.73828 5.18164C0.883789 6.60742 0.317383 8.26758 0.0878906 10.0156C0.00976562 10.6162 0.00976562 12.4424 0.0878906 13.043C0.488281 16.085 1.82617 18.6582 4.0918 20.7627C5.3418 21.9297 6.89941 22.8379 8.59375 23.3945C9.93164 23.8389 10.9912 24 12.5 24C13.6133 24 14.1064 23.9561 15.0879 23.7559C18.4521 23.0674 21.4551 20.9092 23.2617 17.877C24.1162 16.4512 24.6826 14.791 24.9121 13.043C24.9902 12.4424 24.9902 10.6162 24.9121 10.0156C24.6826 8.26758 24.1162 6.60742 23.2617 5.18164C22.168 3.35059 20.6787 1.86133 18.8477 0.767578C17.4365 -0.0771484 15.752 -0.65332 14.0625 -0.873047C13.6328 -0.931641 11.9238 -0.975586 11.6211 -0.941406ZM13.7939 0.108398C17.6074 0.503906 21.0986 2.96973 22.8223 6.47559C23.6182 8.0918 23.9795 9.68359 23.9795 11.5293C23.9795 11.998 23.9551 12.5791 23.9258 12.8232C23.6035 15.5137 22.4365 17.877 20.4932 19.7617C18.6377 21.5684 16.377 22.6475 13.7939 22.9551C13.2275 23.0234 11.7725 23.0234 11.2061 22.9551C8.62305 22.6475 6.3623 21.5684 4.50684 19.7617C2.56348 17.877 1.39648 15.5137 1.07422 12.8232C1.00586 12.2568 1.00586 10.8018 1.07422 10.2354C1.38184 7.66211 2.45605 5.40137 4.24805 3.55078C6.77734 0.943359 10.1416 -0.272461 13.7939 0.108398Z" fill="black" />
        <path d="M11.8408 1.1582C8.06641 1.44629 4.84863 3.61426 3.15918 7.0127C2.4707 8.39941 2.13379 9.88379 2.13379 11.5293C2.13379 12.1445 2.1582 12.6133 2.2168 12.9941C2.56348 15.2695 3.55957 17.2422 5.17578 18.8535C6.78711 20.4697 8.75977 21.4658 11.0352 21.8125C11.7969 21.9297 13.2031 21.9297 13.9648 21.8125C16.2354 21.4658 18.2129 20.4697 19.8242 18.8535C21.4404 17.2422 22.4365 15.2695 22.7832 12.9941C22.9004 12.2324 22.9004 10.8262 22.7832 10.0645C22.4365 7.79395 21.4404 5.81641 19.8242 4.20508C18.2275 2.60352 16.2109 1.58301 14.0137 1.25586C13.4863 1.17773 12.2754 1.12402 11.8408 1.1582ZM14.1797 2.2959C16.6846 2.75488 18.916 4.23926 20.3516 6.40234C20.6201 6.8125 21.1914 7.88672 21.1914 7.99414C21.1914 8.02832 20.9766 7.98926 20.6201 7.88184C15.4199 6.36816 9.58008 6.36816 4.37988 7.88184C4.02344 7.98926 3.80859 8.02832 3.80859 7.99414C3.80859 7.88672 4.37988 6.8125 4.64844 6.40234C5.83496 4.61523 7.5293 3.30664 9.52148 2.6377C10.1221 2.4375 10.5518 2.33496 11.2549 2.22754C11.9141 2.125 13.4375 2.15918 14.1797 2.2959ZM13.6475 7.76953C15.2051 7.83789 16.2256 7.9502 17.6514 8.21387C18.7939 8.42383 19.1992 8.52148 19.248 8.59961C19.2773 8.6582 20 11.6855 20.0781 12.0811C20.0879 12.1494 19.9854 12.2129 19.5898 12.3838C16.9531 13.5215 14.8584 15.7627 13.8965 18.4629L13.7305 18.9268H12.5H11.2695L11.1035 18.4629C10.1465 15.7627 8.04199 13.5215 5.41016 12.3838C5.01465 12.2129 4.91211 12.1494 4.92188 12.0811C5 11.6758 5.72266 8.6582 5.75684 8.59961C5.77637 8.56055 5.86914 8.51172 5.96191 8.49219C7.90527 8.06738 9.53613 7.84277 11.2305 7.76953C12.4463 7.7207 12.4902 7.7207 13.6475 7.76953ZM4.63867 8.88281C4.63867 8.93652 3.9502 11.8418 3.93555 11.8564C3.93066 11.8662 3.74512 11.832 3.52539 11.7881L3.125 11.7051V11.3096C3.125 10.8457 3.18848 10.2549 3.30566 9.66406L3.38379 9.23438L3.97461 9.04395C4.64355 8.8291 4.63867 8.8291 4.63867 8.88281ZM21.0498 9.05371L21.6162 9.23438L21.6943 9.66406C21.8115 10.2549 21.875 10.8457 21.875 11.3096V11.7051L21.4746 11.7881C21.2549 11.832 21.0693 11.8662 21.0645 11.8564C21.0449 11.8418 20.3613 8.93652 20.3613 8.87793C20.3613 8.85352 20.3906 8.84375 20.4248 8.8584C20.4541 8.86816 20.7373 8.96094 21.0498 9.05371ZM4.24805 13.0234C5.92285 13.5801 7.23633 14.459 8.42773 15.8164C9.25293 16.7588 9.96094 18.0674 10.3271 19.3174C10.4736 19.8203 10.625 20.6455 10.5859 20.6895C10.5469 20.7285 9.74609 20.5088 9.20898 20.3135C8.96973 20.2256 8.54492 20.04 8.2666 19.8984C5.60059 18.5312 3.76465 16.041 3.24707 13.0967L3.18848 12.7402L3.38867 12.7695C3.49609 12.7891 3.88672 12.9014 4.24805 13.0234ZM21.748 13.1016C21.1182 16.7344 18.4521 19.6445 14.9023 20.5967C14.6484 20.6602 14.4336 20.7041 14.4141 20.6895C14.375 20.6455 14.5264 19.8203 14.6729 19.3174C15.0977 17.8477 15.8447 16.5635 16.9238 15.4355C18.0713 14.2393 19.3848 13.4287 20.9473 12.9502C21.8701 12.6719 21.8262 12.6621 21.748 13.1016ZM13.4717 20.0352C13.4717 20.0986 13.4424 20.3135 13.4131 20.5137L13.3545 20.8799H12.5H11.6455L11.5869 20.5137C11.5576 20.3135 11.5283 20.0986 11.5283 20.0352L11.5234 19.9277H12.5H13.4766L13.4717 20.0352Z" fill="black" />
        <path d="M11.7769 8.79492C10.2046 9.21973 9.31595 10.8506 9.80912 12.4131C10.0679 13.2285 10.8101 13.9658 11.6451 14.2295C12.1236 14.3809 12.8755 14.3809 13.354 14.2295C14.1988 13.9658 14.9361 13.2285 15.1997 12.3838C15.3511 11.9053 15.3511 11.1533 15.1997 10.6748C14.9361 9.83984 14.2036 9.09766 13.3833 8.83887C12.9146 8.6875 12.231 8.66797 11.7769 8.79492ZM13.1685 9.83008C14.3794 10.2744 14.7163 11.8906 13.7886 12.8184C13.0757 13.5312 11.9234 13.5312 11.2105 12.8184C10.4976 12.1055 10.4976 10.9531 11.2105 10.2402C11.7281 9.72266 12.4605 9.56641 13.1685 9.83008Z" fill="black" />
    </g>
    <defs>
        <clipPath id="clip0_138_74">
        <rect width="25" height="25" fill="white" />
        </clipPath>
    </defs>
    </svg>

    // dashboard_car_park
    <svg width="25" height="25" viewBox="0 0 25 25" fill="none" xmlns="http://www.w3.org/2000/svg" id="dashboard_car_park">
        <path d="M1.4308 11.1722C0.616814 11.0772 0.250112 10.8403 0.09346 10.319C0.0786632 10.2698 0.0455321 10.2111 0.064028 10.1706C0.227757 9.811 0.0172244 9.46072 0.0349161 9.10559C0.0535729 8.73129 0.0657959 8.35684 0.0807534 7.9824C0.0950677 7.62497 0.112118 7.26768 0.122411 6.91025C0.129809 6.65612 0.146696 6.40888 0.48509 6.29802C0.335515 5.96328 0.39229 5.6789 0.715406 5.47703C1.34909 5.08125 1.92584 5.14188 2.40674 5.73994C2.42475 5.71806 2.4426 5.69605 2.46062 5.67418C2.46625 5.58654 2.47879 5.49891 2.47638 5.41141C2.44566 4.2793 2.42861 3.14666 2.36749 2.01564C2.35463 1.77703 2.22033 1.52331 2.06866 1.31401C1.80071 0.944162 1.81567 0.559863 2.18125 0.24632C2.47638 -0.00686407 3.11167 -0.0678982 3.45151 0.124657C3.4758 0.13843 3.50491 0.153013 3.51778 0.173403C3.84379 0.689628 4.24137 1.18519 4.24829 1.80067C4.25488 2.38724 4.24973 2.97382 4.24973 3.54946C5.28406 3.49598 6.24118 3.44643 7.1983 3.3966C7.27888 3.39242 7.38037 3.41051 7.4365 3.37662C7.85209 3.12546 8.3272 3.18325 8.78863 3.18285C11.3752 3.18028 13.9619 3.17556 16.5484 3.18946C16.8691 3.19122 17.1863 3.31383 17.5097 3.35488C17.8581 3.39917 18.2113 3.42037 18.5633 3.43968C19.2597 3.47789 19.9569 3.508 20.6891 3.54311C20.7085 2.99191 20.7442 2.40993 20.7455 1.82794C20.747 1.19667 21.1254 0.685037 21.4915 0.182315C21.657 -0.044943 22.0396 -0.0124004 22.3387 0.0314848C23.0278 0.132623 23.3267 0.826549 22.9298 1.30969C22.7814 1.49036 22.6475 1.72073 22.6369 1.93286C22.5763 3.14072 22.5549 4.34992 22.521 5.55872C22.52 5.59194 22.5287 5.62543 22.5412 5.724C22.6496 5.64447 22.7309 5.59977 22.7892 5.53941C23.1226 5.19481 23.5674 5.13418 24.0981 5.36684C24.5201 5.55184 24.6636 5.8512 24.5214 6.29208C24.8399 6.40226 24.8643 6.64505 24.8759 6.89823C24.9121 7.68898 24.9542 8.47945 24.9938 9.27006C24.9946 9.28707 25.0025 9.30989 24.9927 9.32016C24.7525 9.57186 24.9238 9.8407 24.9348 10.1056C24.9537 10.5681 24.5435 10.992 23.9916 11.1085C23.8552 11.1373 23.715 11.1528 23.5424 11.1797C23.5424 11.4897 23.5448 11.8031 23.5419 12.1165C23.5352 12.8573 23.5204 13.5982 23.5233 14.3389C23.5238 14.4551 23.6092 14.5695 23.6391 14.6878C23.6973 14.9176 23.7666 15.148 23.7877 15.381C23.8025 15.5433 23.8528 15.6322 24.0143 15.7454C24.2617 15.9186 24.4748 16.1523 24.6218 16.3949C24.9163 16.8802 24.9964 17.4193 24.998 17.9573C25.0044 20.2226 24.9931 22.4879 24.9967 24.7532C24.997 24.9427 24.9322 25.0001 24.7041 25C16.5693 24.9957 8.43447 24.9958 0.299809 24.9996C0.0812359 24.9997 0.000336886 24.9562 0.000819388 24.7587C0.00612691 22.4764 -0.00448853 20.1941 0.00242734 17.9117C0.00403568 17.3641 0.119676 16.8288 0.403388 16.3271C0.554411 16.0601 0.750145 15.8322 1.06972 15.6857C1.13647 15.655 1.19308 15.5587 1.19726 15.4903C1.21689 15.1703 1.16172 14.8393 1.45991 14.5744C1.48676 14.5505 1.47519 14.4929 1.47486 14.4511C1.46795 13.3866 1.46023 12.3222 1.4517 11.2577C1.45202 11.2337 1.44028 11.2092 1.4308 11.1722ZM24.2113 20.496C16.388 20.496 8.59611 20.496 0.799683 20.496C0.799683 21.7565 0.799683 23.0203 0.799683 24.2843C8.61364 24.2843 16.4067 24.2843 24.2113 24.2843C24.2113 23.0095 24.2113 21.7518 24.2113 20.496ZM7.0624 20.0198C10.7043 20.0857 14.3157 20.0912 17.9451 20.0187C17.9451 19.8846 17.9454 19.792 17.9451 19.6992C17.9404 18.6096 17.9377 17.5201 17.9304 16.4305C17.9203 14.8733 17.9087 13.316 17.8941 11.7588C17.8888 11.1959 17.4898 10.7961 16.8453 10.7053C16.546 10.6632 16.2439 10.6344 15.9425 10.6026C15.0887 10.5122 14.234 10.4273 13.3816 10.3287C13.2865 10.3176 13.1358 10.2399 13.1265 10.1803C13.0834 9.90687 12.8936 9.85218 12.6133 9.87676C12.493 9.88729 12.3696 9.88499 12.2487 9.87716C12.0537 9.86447 11.9214 9.93131 11.9085 10.0939C11.8935 10.2827 11.7655 10.3207 11.576 10.3403C10.4708 10.4543 9.36619 10.5726 8.26206 10.6948C7.50518 10.7785 7.11129 11.1544 7.10582 11.7923C7.0899 13.6046 7.07414 15.4168 7.0632 17.2291C7.05773 18.1474 7.0624 19.0656 7.0624 20.0198ZM12.33 9.52554C12.33 8.48985 12.33 7.48238 12.33 6.4529C12.189 6.4529 12.0692 6.4529 11.9493 6.4529C10.3572 6.4529 8.76515 6.46006 7.17305 6.44696C6.84238 6.44426 6.51267 6.36567 6.14613 6.31719C6.13776 6.3438 6.09144 6.43022 6.08598 6.51839C6.03773 7.30036 5.98481 8.08232 5.95811 8.86483C5.94203 9.33218 6.30246 9.63343 6.85766 9.64963C7.08009 9.65612 7.30333 9.63964 7.52625 9.63451C9.11722 9.59832 10.708 9.5624 12.33 9.52554ZM12.6631 9.51285C12.7353 9.51946 12.7747 9.5254 12.8143 9.52635C14.5674 9.56848 16.3203 9.61169 18.0736 9.65112C18.6616 9.66435 19.0605 9.3423 19.0424 8.8435C19.0149 8.07814 18.964 7.31319 18.9151 6.5485C18.9085 6.44601 18.8559 6.34555 18.8448 6.3095C18.507 6.36243 18.2169 6.4452 17.9258 6.4475C16.2935 6.46006 14.661 6.45317 13.0285 6.45304C12.9111 6.45304 12.7936 6.45304 12.6631 6.45304C12.6631 7.49035 12.6631 8.49147 12.6631 9.51285ZM5.75241 5.77207C6.00443 5.73953 6.21062 5.68984 6.41697 5.68957C10.3413 5.68363 14.2657 5.68201 18.19 5.68525C18.5374 5.68552 18.8847 5.7263 19.3077 5.75303C19.3685 5.63529 19.5258 5.46744 19.5306 5.29649C19.5462 4.74624 19.2945 4.5441 18.6392 4.53141C15.3248 4.46686 12.0106 4.35141 8.69438 4.4751C7.90437 4.50453 7.11306 4.51075 6.32272 4.53289C5.72136 4.54977 5.50311 4.76042 5.44602 5.25085C5.41482 5.51727 5.6633 5.61125 5.75241 5.77207ZM23.6373 5.88091C23.6273 5.89347 23.6175 5.90616 23.6076 5.91872C22.3011 5.95828 20.9946 5.99595 19.6884 6.04106C19.5808 6.0447 19.3931 6.08778 19.3853 6.13072C19.3656 6.23955 19.3879 6.38188 19.4621 6.47032C20.1448 7.28429 20.843 8.08921 21.5349 8.89764C21.7073 9.09898 21.8738 9.30395 22.0743 9.54471C21.3401 9.54471 20.672 9.5327 20.0049 9.55052C19.7265 9.55795 19.4505 9.62911 19.1734 9.67124C19.1777 9.7108 19.1821 9.7505 19.1862 9.79007C19.2831 9.79007 19.3815 9.79925 19.4764 9.78818C19.6935 9.76279 19.9087 9.70297 20.1252 9.70081C20.6929 9.69514 21.261 9.71607 21.8289 9.72012C22.4031 9.72431 22.9774 9.72107 23.452 9.72107C23.5054 9.89431 23.5223 10.0254 23.5852 10.1386C23.7639 10.4609 23.7526 10.5383 23.4284 10.7428C23.7632 10.7672 24.0553 10.711 24.2483 10.486C24.5121 10.1784 24.4389 9.86028 24.2605 9.61669C24.3156 9.42845 24.3889 9.29531 24.3874 9.16285C24.3789 8.37953 24.3617 7.59594 24.325 6.81317C24.3186 6.67435 24.207 6.53892 24.1439 6.40199C24.2155 6.07995 24.1472 5.83419 23.8429 5.68862C23.6318 5.58762 23.4072 5.50795 23.2127 5.70496C23.3612 5.76654 23.4992 5.82379 23.6373 5.88091ZM5.80596 9.737C4.89452 9.40509 3.92388 9.6287 2.95888 9.51555C3.01163 9.4456 3.04991 9.38916 3.09478 9.33663C3.44862 8.92141 3.80342 8.50673 4.15838 8.09232C4.61386 7.56043 5.07674 7.03273 5.51936 6.49341C5.59881 6.39659 5.62728 6.24887 5.61264 6.13058C5.60766 6.09007 5.40018 6.04686 5.28245 6.04038C4.87779 6.01797 4.47201 6.01054 4.06671 5.99866C3.17199 5.97232 2.2771 5.94667 1.38222 5.92088C1.37499 5.90805 1.36759 5.89509 1.36035 5.88226C1.50333 5.82433 1.64631 5.7664 1.7946 5.70631C1.59131 5.52024 1.37064 5.58384 1.1614 5.68228C0.869646 5.81933 0.799039 6.05496 0.877687 6.42833C0.787781 6.53973 0.6797 6.65909 0.674232 6.78143C0.639652 7.56421 0.621478 8.34766 0.613597 9.13098C0.612149 9.27924 0.681148 9.42805 0.731328 9.63194C0.535111 9.8773 0.493292 10.1953 0.761885 10.4974C0.954565 10.714 1.24005 10.772 1.5667 10.725C1.28138 10.622 1.2341 10.4581 1.35681 10.2443C1.39187 10.1831 1.44125 10.1249 1.45942 10.0605C1.48661 9.96358 1.49207 9.86244 1.51363 9.71796C2.89921 9.79992 4.35026 9.5886 5.80596 9.737ZM23.7549 20.1713C23.7242 19.8575 23.6877 19.596 23.6762 19.3341C23.6656 19.0912 23.526 18.9684 23.2447 18.9687C21.7231 18.9703 20.2013 18.97 18.6799 18.9904C18.5514 18.9922 18.3475 19.1224 18.3135 19.2246C18.2113 19.5323 18.1757 19.8557 18.1144 20.1714C19.9959 20.1713 21.8476 20.1713 23.7549 20.1713ZM1.24551 20.1678C3.14368 20.1678 5.00115 20.1678 6.87712 20.1678C6.83112 19.8959 6.78062 19.6199 6.73848 19.343C6.69972 19.0885 6.53438 18.9729 6.2288 18.9758C5.73262 18.9807 5.23629 18.9758 4.73996 18.9745C3.77785 18.9718 2.81574 18.9675 1.85363 18.9663C1.63602 18.966 1.38994 18.9738 1.34652 19.1981C1.28717 19.5044 1.27929 19.8178 1.24551 20.1678ZM3.80792 5.71887C3.81532 5.67188 3.82529 5.6392 3.82513 5.60652C3.81902 4.38125 3.82127 3.15598 3.80085 1.93084C3.79232 1.41826 3.58276 0.946997 3.23857 0.525159C3.17697 0.449677 3.03785 0.380406 2.9309 0.37649C2.50195 0.360421 2.24429 0.784015 2.48683 1.11673C2.70621 1.41772 2.79579 1.73288 2.79772 2.08383C2.804 3.21539 2.82941 4.34695 2.84871 5.47838C2.84983 5.54279 2.86222 5.6072 2.86946 5.67161C2.93733 5.58046 2.93781 5.4908 2.93717 5.40128C2.93057 4.32913 2.91529 3.25698 2.9214 2.18496C2.92366 1.78541 2.85997 1.40948 2.6303 1.05354C2.57626 0.969818 2.59909 0.851125 2.58655 0.748501C2.61743 0.745126 2.64815 0.74175 2.67903 0.738509C3.00182 1.08973 3.144 1.49671 3.14786 1.93732C3.15831 3.10304 3.15831 4.26877 3.16346 5.43449C3.16394 5.52402 3.17279 5.61368 3.17858 5.71914C3.40005 5.71887 3.58951 5.71887 3.80792 5.71887ZM22.0584 5.67553C22.0862 5.67377 22.1139 5.67202 22.1417 5.67026C22.1454 5.62165 22.1515 5.57304 22.1523 5.52429C22.1708 4.35019 22.1718 3.17555 22.2188 2.00213C22.2302 1.71843 22.3909 1.43851 22.4882 1.15819C22.516 1.07798 22.5773 1.00479 22.5966 0.923772C22.645 0.720415 22.4607 0.444951 22.2406 0.386077C21.9725 0.31424 21.7845 0.402956 21.683 0.61428C21.5289 0.935385 21.2726 1.25649 21.2575 1.58408C21.1942 2.9514 21.205 4.32116 21.1894 5.69011C21.1894 5.69632 21.2016 5.7028 21.2057 5.70658C21.4133 5.70658 21.6171 5.70658 21.8382 5.70658C21.8382 5.55143 21.8379 5.42423 21.8382 5.29703C21.8422 4.17371 21.8461 3.05052 21.8506 1.92719C21.8524 1.4828 22.0113 1.085 22.3746 0.742425C22.3991 0.863143 22.3801 0.975894 22.3513 1.08676C22.2641 1.42258 22.1086 1.75597 22.0959 2.09341C22.0552 3.17326 22.0669 4.25446 22.0587 5.33511C22.0576 5.44881 22.0584 5.56223 22.0584 5.67553ZM7.71313 4.03935C7.83424 3.868 8.08563 3.84882 8.36339 3.84936C11.0905 3.85382 13.8176 3.85436 16.5447 3.84882C16.859 3.84815 17.1506 3.8603 17.3008 4.03881C17.4335 3.99141 17.5222 3.93079 17.6081 3.93362C18.1344 3.95091 18.6614 3.97076 19.1856 4.01275C19.7524 4.05812 20.3586 3.96535 20.8428 4.33696C20.6435 3.97656 20.4425 3.87002 19.9886 3.85152C19.1788 3.8183 18.3692 3.78482 17.5597 3.74701C17.473 3.74296 17.3886 3.70879 17.3029 3.68989C17.1399 3.65411 16.9767 3.58889 16.8134 3.58848C13.9445 3.58227 11.0754 3.58376 8.20641 3.58551C8.08611 3.58565 7.96436 3.59928 7.84582 3.61832C7.58463 3.66045 7.32761 3.73499 7.06465 3.752C6.34749 3.79859 5.62808 3.81925 4.90996 3.85598C4.51093 3.87637 4.2745 4.03584 4.1891 4.28025C4.42038 4.213 4.68447 4.0881 4.96078 4.06514C5.76688 3.99803 6.57748 3.96859 7.38696 3.93389C7.47365 3.93038 7.5642 3.98925 7.71313 4.03935ZM0.871736 16.959C0.893288 16.9705 0.915001 16.982 0.936553 16.9934C1.06329 16.8207 1.17443 16.638 1.3203 16.4776C1.5207 16.2571 1.76662 16.0894 2.12624 16.0752C3.3407 16.0274 4.55532 15.9773 5.76881 15.916C5.98336 15.9052 6.12007 15.9657 6.21802 16.1094C6.34621 16.2971 6.46635 16.4887 6.63651 16.7499C6.63651 15.3866 6.63651 14.1 6.63651 12.8045C6.61544 12.8435 6.58762 12.8785 6.57732 12.9169C6.35328 13.753 6.12249 14.588 5.91517 15.4272C5.86981 15.611 5.78071 15.6493 5.57436 15.6583C4.58363 15.7013 3.59224 15.7462 2.60456 15.8221C2.13991 15.8577 1.6291 15.8681 1.3314 16.2567C1.15995 16.4809 1.02389 16.7242 0.871736 16.959ZM24.0716 17.0242C23.9365 16.3399 23.4829 15.932 22.7135 15.8662C21.6367 15.7743 20.5557 15.7123 19.4749 15.6612C19.2131 15.6488 19.1118 15.5859 19.0595 15.3729C18.8655 14.5831 18.6489 13.7971 18.4388 13.0102C18.4263 12.9633 18.3977 12.9194 18.3702 12.8605C18.3702 14.147 18.3702 15.409 18.3702 16.6709C18.5106 16.5211 18.6121 16.3684 18.7002 16.2104C18.8337 15.9711 19.0379 15.9001 19.3574 15.9197C20.4079 15.9841 21.4609 16.0531 22.5131 16.0542C23.2124 16.0548 23.6354 16.3138 23.9244 16.8051C23.9643 16.8725 24.0124 16.9366 24.0716 17.0242ZM5.97468 11.214C5.48719 11.214 5.05021 11.2388 4.61933 11.2064C4.24443 11.1783 4.07587 11.3236 3.99658 11.5919C3.95541 11.7309 3.89815 11.8787 3.91665 12.0159C4.01411 12.7417 4.132 13.4658 4.24732 14.1898C4.25568 14.242 4.28544 14.3202 4.32999 14.3354C4.59392 14.4253 4.86492 14.5001 5.13368 14.58C4.96545 14.4547 4.77244 14.3791 4.59714 14.2812C4.51608 14.236 4.4244 14.1516 4.41411 14.0774C4.33208 13.4894 4.26839 12.8996 4.19473 12.273C4.67401 12.293 5.1266 12.3066 5.57774 12.3373C5.63065 12.3409 5.70319 12.4324 5.71751 12.4914C5.76399 12.6841 5.78779 12.8807 5.82028 13.0758C5.8391 13.0738 5.85791 13.0719 5.87673 13.0698C5.90858 12.4626 5.94074 11.8552 5.97468 11.214ZM20.7981 12.274C20.7748 12.5053 20.7573 12.6913 20.7368 12.8773C20.7154 13.072 20.6641 13.2673 20.6731 13.4609C20.6974 13.9848 20.5031 14.3791 19.8584 14.5415C19.8503 14.5436 19.8452 14.5541 19.8025 14.5969C20.1109 14.5081 20.3783 14.4401 20.6347 14.3502C20.6945 14.3293 20.7423 14.2368 20.7534 14.1721C20.8576 13.5583 20.9589 12.9439 21.0477 12.3284C21.0955 11.997 21.1114 11.6617 20.8747 11.3662C20.8243 11.3032 20.7315 11.2236 20.6559 11.2218C20.1226 11.2094 19.5888 11.2152 19.0236 11.2152C19.0582 11.8655 19.0909 12.4816 19.1235 13.0978C19.1406 13.0983 19.1574 13.0989 19.1745 13.0993C19.2165 12.8501 19.2584 12.601 19.3036 12.3335C19.8027 12.3135 20.2841 12.2944 20.7981 12.274ZM1.70068 17.5438C2.28627 17.1648 2.35189 17.1478 3.08304 17.1427C4.08633 17.1356 5.08961 17.126 6.09273 17.1162C6.20789 17.1151 6.32288 17.105 6.4805 17.0969C6.36792 16.9347 6.29972 16.7989 6.19068 16.6927C6.11959 16.6236 5.98722 16.5555 5.88542 16.5585C4.86283 16.5882 3.84105 16.6347 2.81879 16.6723C2.09054 16.6992 1.82886 16.8942 1.70068 17.5438ZM23.2925 17.5717C23.2119 16.9498 22.8973 16.6975 22.2313 16.6736C21.1983 16.6366 20.1654 16.5932 19.1324 16.5558C19.0469 16.5527 18.9176 16.5493 18.8818 16.5908C18.7505 16.7423 18.6503 16.9126 18.4924 17.1428C19.6657 17.1428 20.7502 17.1514 21.8344 17.1391C22.3791 17.1332 22.8885 17.1805 23.2925 17.5717ZM3.00295 15.2318C3.33121 15.2318 3.58774 15.2318 3.82867 15.2318C3.82867 13.9921 3.82867 12.773 3.82867 11.5348C3.61862 11.5348 3.44653 11.5456 3.27733 11.5321C3.0483 11.5139 2.97931 11.585 2.98799 11.7776C3.00761 12.219 3.0015 12.6614 3.00247 13.1032C3.00407 13.8082 3.00295 14.5129 3.00295 15.2318ZM21.973 15.2426C21.973 13.9975 21.973 12.7783 21.973 11.5532C21.6969 11.5532 21.44 11.5532 21.1568 11.5532C21.1568 12.793 21.1568 14.0128 21.1568 15.2426C21.4241 15.2426 21.6745 15.2426 21.973 15.2426ZM3.22699 17.4642C3.22699 17.4638 3.22699 17.4632 3.22699 17.4628C2.99426 17.4628 2.76154 17.4639 2.52865 17.4625C2.33629 17.4615 2.22194 17.5182 2.23078 17.701C2.23931 17.879 2.23014 18.0578 2.22564 18.2361C2.22097 18.4238 2.32198 18.522 2.55133 18.5219C2.99667 18.5216 3.44186 18.5207 3.88721 18.5254C4.09228 18.5275 4.18572 18.4454 4.18669 18.2794C4.18781 18.0925 4.18781 17.9055 4.18733 17.7186C4.18685 17.5386 4.07828 17.458 3.86437 17.463C3.65223 17.4681 3.43961 17.4642 3.22699 17.4642ZM5.43154 17.4628C5.20879 17.4628 4.98587 17.4663 4.76328 17.4619C4.54245 17.4573 4.4178 17.519 4.43324 17.7276C4.44643 17.9053 4.43292 18.0845 4.43115 18.263C4.42955 18.4287 4.52492 18.5189 4.72436 18.5201C5.19013 18.5228 5.65639 18.5312 6.12152 18.5159C6.21046 18.513 6.36583 18.4145 6.36888 18.3556C6.3832 18.0872 6.35409 17.8171 6.34074 17.5476C6.07826 17.5193 5.81577 17.4902 5.55313 17.463C5.51292 17.4588 5.47191 17.4624 5.43154 17.4628ZM19.5534 17.4836C18.4406 17.5032 18.6312 17.307 18.6143 18.2868C18.6141 18.2953 18.6149 18.3038 18.6151 18.3122C18.6183 18.4561 18.6991 18.5296 18.8771 18.5284C19.3418 18.525 19.8066 18.5252 20.2714 18.5242C20.4711 18.5238 20.5686 18.438 20.5683 18.2723C20.568 18.0772 20.5882 17.8794 20.5543 17.6883C20.5408 17.6122 20.4137 17.5031 20.3246 17.4928C20.0864 17.4655 19.8408 17.4836 19.5534 17.4836ZM21.8136 17.4827C21.7732 17.4827 21.7327 17.4821 21.6923 17.4828C20.6949 17.4998 20.8246 17.3336 20.8123 18.2534C20.8097 18.4413 20.8946 18.5355 21.1339 18.5308C21.5682 18.522 22.0029 18.522 22.4372 18.5266C22.6651 18.529 22.7772 18.4473 22.7743 18.2555C22.7715 18.0688 22.7658 17.8822 22.769 17.6956C22.7717 17.544 22.6855 17.4802 22.5107 17.482C22.2784 17.4843 22.046 17.4825 21.8136 17.4827ZM23.0389 14.5549C23.0389 13.4159 23.0389 12.2863 23.0389 11.1475C22.8066 11.1475 22.6032 11.1475 22.3997 11.1475C22.6625 11.2599 22.6659 11.448 22.6683 11.6492C22.6765 12.3453 22.6784 13.0422 22.7199 13.7372C22.7383 14.0444 22.7106 14.3061 22.3847 14.4916C22.3762 14.4964 22.3836 14.5212 22.3836 14.5549C22.5998 14.5549 22.8155 14.5549 23.0389 14.5549ZM1.95238 11.1478C1.95238 12.2938 1.95238 13.4217 1.95238 14.5461C2.19395 14.5461 2.41446 14.5461 2.59218 14.5461C2.48185 14.3678 2.28949 14.1983 2.28563 14.0259C2.26842 13.2687 2.30445 12.5107 2.32407 11.753C2.33002 11.526 2.26488 11.2739 2.5933 11.1478C2.3847 11.1478 2.1761 11.1478 1.95238 11.1478ZM5.11036 10.0021C4.02923 10.0021 2.99008 10.0021 1.9371 10.0021C1.9371 10.1279 1.9371 10.2327 1.9371 10.3364C2.99603 10.3364 4.03405 10.3364 5.09266 10.3364C5.0991 10.2137 5.10441 10.1151 5.11036 10.0021ZM23.0665 10.0025C22.0036 10.0025 20.9559 10.0025 19.8905 10.0025C19.8973 10.1199 19.9034 10.2246 19.9101 10.3407C20.9864 10.3407 22.0241 10.3407 23.0665 10.3407C23.0665 10.2218 23.0665 10.1224 23.0665 10.0025ZM2.64927 15.725C2.666 15.7367 2.68273 15.7485 2.69945 15.7603C2.75945 15.6993 2.8471 15.646 2.87508 15.5758C3.09366 15.0271 2.88538 14.7941 2.20569 14.8151C2.13541 14.8173 2.05966 14.8154 1.99693 14.837C1.9371 14.8577 1.848 14.9048 1.84575 14.9433C1.83191 15.1871 1.83867 15.4318 1.83867 15.6764C1.86328 15.6759 1.88772 15.6755 1.91233 15.675C1.9252 15.6049 1.93807 15.5348 1.94788 15.4822C2.10067 15.4969 2.22853 15.5192 2.35623 15.5188C2.47943 15.5185 2.60263 15.495 2.75333 15.4788C2.71393 15.5721 2.6816 15.6485 2.64927 15.725ZM23.085 15.7077C23.2618 15.4085 23.2246 14.9215 23.0469 14.8458C22.7899 14.7363 22.1953 14.8065 22.1158 14.9558C21.9958 15.1809 22.128 15.6489 22.3516 15.7406C22.3164 15.6498 22.2847 15.5681 22.2567 15.4958C22.5362 15.4958 22.7962 15.4958 23.0593 15.4958C23.0654 15.5456 23.0723 15.6034 23.085 15.7077ZM23.0504 10.9952C23.0504 10.8294 23.0504 10.688 23.0504 10.5525C22.4528 10.3768 22.1324 10.7568 21.7383 10.9952C22.1676 10.9952 22.5967 10.9952 23.0504 10.9952ZM3.2569 10.9966C3.26479 10.975 3.27267 10.9534 3.28055 10.9318C2.85852 10.7626 2.53492 10.3634 1.95318 10.5587C1.95318 10.7057 1.95318 10.8455 1.95318 10.9967C2.39966 10.9966 2.82828 10.9966 3.2569 10.9966ZM18.2322 10.8422C17.9415 10.4227 18.5369 10.2008 18.6466 9.83962C18.3599 9.84624 18.1268 9.91348 18.0218 10.1723C17.937 10.381 17.7665 10.471 17.4926 10.3968C17.4029 10.3725 17.2958 10.393 17.2522 10.393C17.5591 10.5337 17.9031 10.6914 18.2322 10.8422ZM6.76647 10.8437C7.0928 10.6902 7.42058 10.5361 7.75752 10.3777C7.56822 10.3939 7.38037 10.4101 7.16791 10.4284C7.06883 10.2962 6.98777 10.1313 6.84752 10.0177C6.72095 9.91524 6.52972 9.86906 6.32401 9.7794C6.47793 10.1922 7.02991 10.4273 6.76647 10.8437ZM4.3213 8.4168C4.08054 8.74654 3.87998 9.0212 3.66816 9.31151C3.91086 9.31151 4.11431 9.31151 4.3213 9.31151C4.3213 9.02012 4.3213 8.75249 4.3213 8.4168ZM21.3435 9.32218C21.1196 9.01782 20.9178 8.74344 20.682 8.42287C20.682 8.76518 20.682 9.03754 20.682 9.32218C20.9027 9.32218 21.0977 9.32218 21.3435 9.32218Z" fill="black" />
        <path d="M24.2115 20.4961C24.2115 21.7519 24.2115 23.0094 24.2115 24.2844C16.4068 24.2844 8.61377 24.2844 0.799805 24.2844C0.799805 23.0204 0.799805 21.7566 0.799805 20.4961C8.59624 20.4961 16.3882 20.4961 24.2115 20.4961ZM23.4481 21.664C22.809 22.628 21.8047 23.0433 20.5951 23.0479C15.2001 23.0684 9.80474 23.0578 4.40956 23.0537C4.16912 23.0536 3.92256 23.0294 3.68967 22.9801C2.78144 22.7883 2.00043 22.4381 1.56087 21.6555C1.56087 22.4049 1.56087 23.1107 1.56087 23.8148C8.86998 23.8148 16.1477 23.8148 23.4481 23.8148C23.4481 23.0998 23.4481 22.3987 23.4481 21.664Z" fill="white" />
        <path d="M7.06236 20.0198C7.06236 19.0656 7.0577 18.1473 7.06333 17.2291C7.07442 15.4168 7.09002 13.6046 7.10595 11.7923C7.11158 11.1544 7.5053 10.7786 8.26218 10.6948C9.36615 10.5726 10.4709 10.4543 11.5762 10.3403C11.7656 10.3207 11.8937 10.2826 11.9086 10.0939C11.9215 9.93129 12.0538 9.86445 12.2488 9.87714C12.3697 9.88498 12.4931 9.88727 12.6134 9.87674C12.8937 9.85216 13.0835 9.90685 13.1266 10.1803C13.1359 10.24 13.2865 10.3178 13.3817 10.3287C14.2341 10.4273 15.0888 10.5123 15.9427 10.6025C16.2439 10.6344 16.5461 10.6632 16.8454 10.7053C17.4897 10.796 17.8889 11.196 17.8942 11.7588C17.909 13.316 17.9204 14.8732 17.9306 16.4305C17.9376 17.5201 17.9405 18.6096 17.9452 19.6992C17.9455 19.7918 17.9452 19.8846 17.9452 20.0187C14.3157 20.0913 10.7043 20.0856 7.06236 20.0198ZM8.13931 12.4947C8.13931 14.8593 8.13931 17.1949 8.13931 19.5409C8.46612 19.5409 8.75466 19.5409 9.05204 19.5409C9.05204 17.1822 9.05204 14.8397 9.05204 12.4947C8.73294 12.4947 8.44071 12.4947 8.13931 12.4947ZM16.8707 19.5435C16.8707 17.1767 16.8707 14.8414 16.8707 12.5015C16.5533 12.5015 16.2542 12.5015 15.9484 12.5015C15.9484 14.8602 15.9484 17.2025 15.9484 19.5435C16.2589 19.5435 16.5403 19.5435 16.8707 19.5435ZM13.6956 19.553C14.0078 19.553 14.2947 19.553 14.5867 19.553C14.5867 17.1899 14.5867 14.8474 14.5867 12.4851C14.2771 12.4851 13.9904 12.4851 13.6956 12.4851C13.6956 14.8452 13.6956 17.1834 13.6956 19.553ZM11.2939 19.5547C11.2939 17.1908 11.2939 14.8456 11.2939 12.4939C10.9899 12.4939 10.7046 12.4939 10.405 12.4939C10.405 14.8616 10.405 17.1991 10.405 19.5547C10.7033 19.5547 10.983 19.5547 11.2939 19.5547ZM12.3491 19.5689C12.3491 17.1946 12.3491 14.8356 12.3491 12.4554C12.2139 12.4554 12.1145 12.4537 12.0151 12.4557C11.5178 12.4661 11.5176 12.4664 11.5176 12.8866C11.5179 14.9112 11.5188 16.9358 11.5189 18.9604C11.5191 19.6279 11.5186 19.6279 12.3491 19.5689ZM15.6782 19.5444C15.6782 17.1879 15.6782 14.8445 15.6782 12.4954C15.3881 12.4954 15.1187 12.4954 14.8487 12.4954C14.8487 14.8529 14.8487 17.1958 14.8487 19.5444C15.1446 19.5444 15.4039 19.5444 15.6782 19.5444ZM10.1492 19.5423C10.1492 17.1853 10.1492 14.8435 10.1492 12.4965C9.87101 12.4965 9.60386 12.4965 9.32401 12.4965C9.32401 14.8559 9.32401 17.1976 9.32401 19.5423C9.60611 19.5423 9.86522 19.5423 10.1492 19.5423ZM12.6449 12.476C12.6449 14.835 12.6449 17.1967 12.6449 19.5825C12.8027 19.5825 12.9534 19.5721 13.1012 19.5848C13.383 19.609 13.4792 19.5285 13.4777 19.2761C13.4652 17.1988 13.471 15.1215 13.4701 13.0442C13.47 12.4548 13.4684 12.4546 12.7639 12.4538C12.7355 12.4535 12.707 12.4639 12.6449 12.476ZM11.9011 10.7366C11.5869 10.776 11.2772 10.8148 10.9676 10.8538C10.0474 10.97 9.12715 11.0841 8.20766 11.2036C7.93376 11.2391 7.74832 11.3576 7.72902 11.5904C7.9291 11.5168 8.11904 11.4027 8.32394 11.3788C9.54628 11.2358 10.772 11.1127 11.9972 10.987C12.0706 10.9794 12.1579 10.9934 12.2234 11.0222C12.4199 11.1084 12.6031 11.1089 12.8003 11.0191C12.8706 10.9871 12.9716 10.9864 13.0554 10.9945C13.97 11.0841 14.8879 11.1572 15.7965 11.2793C16.2909 11.3457 16.8457 11.2647 17.2782 11.6517C17.2422 11.3723 17.0888 11.2458 16.815 11.211C15.8862 11.0926 14.953 10.9934 14.0311 10.8448C13.6416 10.782 13.1142 10.938 12.9111 10.3723C12.8532 10.6499 12.8112 10.8546 12.5 10.8567C12.1824 10.8587 12.1634 10.6344 12.0656 10.4032C11.9998 10.5365 11.9559 10.6255 11.9011 10.7366Z" fill="white" />
        <path d="M12.3293 9.52548C10.7073 9.56221 9.11649 9.59827 7.52568 9.63445C7.30276 9.63959 7.07953 9.65606 6.85709 9.64958C6.30189 9.63337 5.94146 9.33212 5.95755 8.86478C5.98441 8.08227 6.03716 7.3003 6.08541 6.51834C6.09088 6.43016 6.1372 6.34374 6.14556 6.31714C6.5121 6.36561 6.84181 6.4442 7.17249 6.4469C8.76442 6.46014 10.3567 6.45285 11.9488 6.45285C12.0686 6.45285 12.1883 6.45285 12.3295 6.45285C12.3293 7.48232 12.3293 8.48979 12.3293 9.52548Z" fill="white" />
        <path d="M12.6631 9.51281C12.6631 8.49143 12.6631 7.49031 12.6631 6.45286C12.7937 6.45286 12.9111 6.45286 13.0285 6.45286C14.661 6.45313 16.2934 6.45989 17.9257 6.44733C18.2168 6.44503 18.507 6.36239 18.8447 6.30933C18.8558 6.34538 18.9084 6.44584 18.915 6.54833C18.9639 7.31301 19.0149 8.07797 19.0424 8.84332C19.0603 9.34213 18.6616 9.66418 18.0735 9.65095C16.3205 9.61152 14.5674 9.56831 12.8143 9.52618C12.7747 9.52537 12.7353 9.51943 12.6631 9.51281Z" fill="white" />
        <path d="M5.75257 5.77205C5.66347 5.61136 5.41498 5.51724 5.44603 5.25083C5.50312 4.76039 5.72137 4.54974 6.32273 4.53286C7.11323 4.51072 7.90437 4.50451 8.69439 4.47507C12.0106 4.35138 15.3248 4.46683 18.6392 4.53138C19.2945 4.54421 19.5462 4.74621 19.5306 5.29647C19.5258 5.46742 19.3685 5.63526 19.3077 5.75301C18.8847 5.72627 18.5374 5.68563 18.19 5.68522C14.2657 5.68198 10.3413 5.68374 6.41698 5.68954C6.21079 5.68981 6.0046 5.73937 5.75257 5.77205Z" fill="white" />
        <path d="M23.6378 5.88095C23.4998 5.82383 23.3618 5.76657 23.2132 5.70514C23.4076 5.50812 23.6323 5.58779 23.8433 5.6888C24.1476 5.83436 24.216 6.08012 24.1444 6.40217C24.2075 6.53909 24.3191 6.67452 24.3255 6.81334C24.3622 7.59611 24.3794 8.37957 24.3879 9.16302C24.3894 9.29548 24.316 9.42862 24.261 9.61686C24.4394 9.86046 24.5124 10.1786 24.2488 10.4862C24.0559 10.7112 23.7637 10.7672 23.4289 10.743C23.7531 10.5384 23.7644 10.4611 23.5857 10.1388C23.5229 10.0255 23.5059 9.89435 23.4525 9.72124C22.9779 9.72124 22.4035 9.72448 21.8294 9.72029C21.2613 9.71611 20.6934 9.69518 20.1256 9.70098C19.909 9.70314 19.694 9.76296 19.4768 9.78835C19.3819 9.79942 19.2835 9.79024 19.1867 9.79024C19.1824 9.75067 19.178 9.71098 19.1738 9.67141C19.4509 9.62928 19.7269 9.55812 20.0053 9.55069C20.6725 9.53287 21.3407 9.54489 22.0748 9.54489C21.8742 9.30399 21.7078 9.09915 21.5354 8.89782C20.8433 8.08925 20.1453 7.28433 19.4625 6.47049C19.3884 6.38218 19.366 6.23972 19.3858 6.13089C19.3937 6.08781 19.5812 6.04487 19.6888 6.04123C20.995 5.99613 22.3016 5.95845 23.608 5.91889C23.618 5.9062 23.6278 5.8935 23.6378 5.88095ZM23.9114 9.05756C23.8279 9.21136 23.7997 9.38541 23.6839 9.45185C23.4023 9.61362 22.9787 9.39959 22.9698 9.1086C22.9492 8.42818 22.9427 7.74748 22.9222 7.06706C22.9073 6.57069 22.9024 6.56974 23.462 6.43079C23.4202 6.38137 23.3801 6.33398 23.3269 6.27092C23.5926 6.29428 23.681 6.40163 23.6892 6.59661C23.7158 7.23409 23.7558 7.87117 23.7976 8.50812C23.8031 8.59183 23.8493 8.67366 23.8766 8.75644C23.9583 8.71849 23.9717 8.69581 23.9709 8.67366C23.9435 8.00202 23.8993 7.33051 23.8916 6.65873C23.8858 6.15911 23.6268 6.10145 23.1768 6.10861C22.2752 6.12279 21.3739 6.15033 20.4724 6.17464C20.1741 6.18274 19.8759 6.19759 19.5618 6.21002C19.5841 6.25701 19.5899 6.28226 19.606 6.30116C20.5049 7.35022 21.4035 8.39942 22.3074 9.44523C22.355 9.50033 22.4478 9.56001 22.5214 9.56163C22.984 9.5723 23.4469 9.56703 23.9114 9.56703C23.9114 9.395 23.9114 9.23999 23.9114 9.05756Z" fill="white" />
        <path d="M5.80595 9.73693C4.35024 9.58853 2.8992 9.79986 1.51361 9.71749C1.49222 9.86197 1.48675 9.96324 1.45941 10.0601C1.44124 10.1245 1.39186 10.1827 1.3568 10.2438C1.23425 10.4576 1.28137 10.6215 1.56669 10.7246C1.24003 10.7715 0.954392 10.7135 0.761874 10.4969C0.493281 10.1948 0.535099 9.87669 0.731317 9.63147C0.681297 9.42757 0.612137 9.27877 0.613585 9.13051C0.621466 8.34719 0.63964 7.56374 0.67422 6.78096C0.679688 6.65849 0.787769 6.53925 0.877675 6.42785C0.799027 6.05463 0.869634 5.819 1.16139 5.6818C1.37063 5.5835 1.5913 5.51977 1.79459 5.70584C1.6463 5.76593 1.50332 5.82386 1.36034 5.88179C1.36758 5.89461 1.37497 5.90758 1.38221 5.9204C2.27709 5.94633 3.17181 5.97199 4.06669 5.99818C4.472 6.01006 4.87778 6.01749 5.28244 6.03991C5.40017 6.04639 5.60764 6.08973 5.61263 6.13011C5.62727 6.24853 5.5988 6.39612 5.51935 6.49294C5.07673 7.03239 4.61385 7.55995 4.15837 8.09184C3.80341 8.50639 3.44861 8.92094 3.09477 9.33616C3.05006 9.38868 3.01178 9.44513 2.95887 9.51507C3.92387 9.62864 4.89451 9.40489 5.80595 9.73693ZM1.08129 9.56936C1.51844 9.56936 1.93194 9.56409 2.34513 9.57179C2.52446 9.57516 2.63688 9.52534 2.74448 9.39814C3.44201 8.57337 4.15274 7.75656 4.85735 6.93598C5.05582 6.7048 5.2485 6.46998 5.48798 6.18385C5.18883 6.18385 4.95868 6.18858 4.72885 6.18304C3.74647 6.15914 2.76426 6.127 1.78172 6.10823C1.26802 6.09851 1.12745 6.21707 1.10783 6.63891C1.08451 7.14041 1.06344 7.64205 1.04607 8.1437C1.03915 8.34192 1.04494 8.54042 1.04494 8.73878C1.0747 8.74323 1.10429 8.74783 1.13404 8.75228C1.15881 8.65816 1.19983 8.56472 1.20594 8.4698C1.24631 7.84136 1.28394 7.21265 1.31144 6.58368C1.32013 6.38626 1.42451 6.29039 1.67477 6.27284C1.61944 6.33698 1.57666 6.38653 1.53179 6.43852C1.78751 6.51441 2.09278 6.49766 2.08055 6.82728C2.05273 7.57548 2.03311 8.32423 2.03182 9.07285C2.03134 9.32765 1.91457 9.44229 1.62121 9.47754C1.32833 9.51264 1.18664 9.41637 1.15624 9.17858C1.1519 9.14482 1.13035 9.11255 1.11667 9.07973C1.10493 9.08203 1.09303 9.08419 1.08129 9.08648C1.08129 9.23799 1.08129 9.38963 1.08129 9.56936Z" fill="white" />
        <path d="M23.7549 20.1712C21.8477 20.1712 19.9959 20.1712 18.1143 20.1712C18.1755 19.8555 18.2111 19.5321 18.3134 19.2244C18.3473 19.1223 18.5514 18.992 18.6797 18.9902C20.2011 18.9699 21.7229 18.9701 23.2445 18.9685C23.5258 18.9682 23.6654 19.091 23.6761 19.3339C23.6876 19.5961 23.7241 19.8574 23.7549 20.1712Z" fill="white" />
        <path d="M1.24609 20.1677C1.27987 19.8177 1.28775 19.5043 1.3471 19.1979C1.39052 18.9736 1.63676 18.9658 1.85421 18.9661C2.81632 18.9673 3.77843 18.9716 4.74054 18.9743C5.23687 18.9758 5.7332 18.9805 6.22938 18.9757C6.53512 18.9727 6.70046 19.0883 6.73906 19.3428C6.7812 19.6198 6.8317 19.8958 6.8777 20.1676C5.00189 20.1677 3.14442 20.1677 1.24609 20.1677Z" fill="white" />
        <path d="M3.8072 5.71883C3.58879 5.71883 3.39949 5.71883 3.17786 5.71883C3.17207 5.61337 3.16323 5.52371 3.16274 5.43418C3.15744 4.26846 3.15744 3.10273 3.14714 1.937C3.14328 1.4964 3.00111 1.08955 2.67831 0.738195C2.64743 0.741571 2.61671 0.744947 2.58583 0.748188C2.59838 0.850811 2.57554 0.969504 2.62958 1.05322C2.85925 1.40917 2.92294 1.78509 2.92069 2.18465C2.91441 3.25667 2.92969 4.32881 2.93645 5.40096C2.93693 5.49062 2.93645 5.58029 2.86874 5.6713C2.8615 5.60689 2.84912 5.54261 2.84799 5.47807C2.82869 4.3465 2.80328 3.21508 2.79701 2.08351C2.79508 1.73243 2.70565 1.4174 2.48611 1.11642C2.24358 0.783701 2.50139 0.360107 2.93018 0.376176C3.03713 0.380227 3.17625 0.449498 3.23785 0.524846C3.58204 0.946684 3.7916 1.41794 3.80013 1.93052C3.82055 3.15566 3.81846 4.38094 3.82441 5.60621C3.82441 5.63916 3.8146 5.6717 3.8072 5.71883Z" fill="white" />
        <path d="M22.0586 5.67547C22.0586 5.56205 22.0578 5.44876 22.0588 5.33533C22.067 4.25467 22.0554 3.17348 22.0959 2.09363C22.1086 1.75619 22.2643 1.42279 22.3513 1.08697C22.3801 0.976111 22.3991 0.86336 22.3746 0.742642C22.0113 1.08522 21.8524 1.48302 21.8506 1.92741C21.8461 3.05073 21.8423 4.17392 21.8383 5.29725C21.8378 5.42445 21.8383 5.55165 21.8383 5.7068C21.6173 5.7068 21.4135 5.7068 21.2057 5.7068C21.2017 5.70288 21.1895 5.69654 21.1895 5.69033C21.2051 4.32138 21.1943 2.95162 21.2575 1.58429C21.2726 1.25671 21.529 0.935602 21.6831 0.614497C21.7844 0.403308 21.9724 0.314592 22.2407 0.386294C22.4605 0.445168 22.645 0.720632 22.5966 0.923989C22.5773 1.00487 22.516 1.07806 22.4882 1.1584C22.3909 1.43873 22.2302 1.71878 22.2188 2.00235C22.1718 3.17564 22.1709 4.35027 22.1524 5.52451C22.1516 5.57312 22.1455 5.62173 22.1418 5.67048C22.1141 5.6721 22.0863 5.67372 22.0586 5.67547Z" fill="white" />
        <path d="M7.71349 4.0394C7.56439 3.9893 7.47401 3.93043 7.38732 3.93407C6.57784 3.96877 5.76723 3.99821 4.96113 4.06532C4.68498 4.08828 4.42073 4.21318 4.18945 4.28043C4.27486 4.03588 4.51128 3.87655 4.91031 3.85616C5.62843 3.81943 6.34784 3.79863 7.065 3.75218C7.32781 3.73517 7.58498 3.66063 7.84618 3.6185C7.96455 3.59933 8.08646 3.58569 8.20677 3.58569C11.0757 3.5838 13.9448 3.58245 16.8138 3.58866C16.977 3.58907 17.1403 3.65429 17.3032 3.69007C17.3891 3.70897 17.4735 3.74314 17.5601 3.74719C18.3696 3.785 19.1792 3.81848 19.989 3.8517C20.4429 3.87034 20.6439 3.97674 20.8432 4.33714C20.3587 3.96553 19.7527 4.0583 19.1859 4.01293C18.6618 3.97107 18.1349 3.95122 17.6085 3.9338C17.5226 3.93097 17.4338 3.99146 17.3011 4.03899C17.1509 3.86048 16.8593 3.84833 16.545 3.849C13.8179 3.85454 11.0908 3.854 8.36374 3.84954C8.08598 3.84887 7.83476 3.86804 7.71349 4.0394Z" fill="white" />
        <path d="M0.871094 16.959C1.02324 16.7243 1.15931 16.4808 1.33108 16.2567C1.62878 15.8682 2.13959 15.8578 2.60424 15.822C3.59192 15.7461 4.58331 15.7013 5.57404 15.6582C5.78039 15.6493 5.86949 15.6109 5.91485 15.4272C6.12216 14.5881 6.3528 13.753 6.577 12.9168C6.5873 12.8784 6.61512 12.8435 6.63619 12.8044C6.63619 14.0998 6.63619 15.3865 6.63619 16.7498C6.46619 16.4886 6.34588 16.2972 6.2177 16.1093C6.11959 15.9657 5.98304 15.9052 5.76849 15.916C4.55484 15.9773 3.34038 16.0274 2.12592 16.0752C1.7663 16.0894 1.52038 16.2571 1.31998 16.4776C1.17411 16.638 1.06297 16.8205 0.93623 16.9934C0.914357 16.9819 0.892646 16.9704 0.871094 16.959Z" fill="white" />
        <path d="M24.0714 17.0242C24.0122 16.9364 23.9641 16.8724 23.9244 16.8049C23.6353 16.3136 23.2123 16.0548 22.513 16.054C21.4609 16.0529 20.4079 15.9839 19.3573 15.9195C19.0379 15.8999 18.8336 15.9709 18.7001 16.2102C18.612 16.3681 18.5105 16.5208 18.3701 16.6707C18.3701 15.4087 18.3701 14.1468 18.3701 12.8604C18.3976 12.9192 18.4262 12.9631 18.4388 13.01C18.6488 13.7971 18.8655 14.5829 19.0595 15.3727C19.1117 15.5858 19.213 15.6487 19.4749 15.661C20.5557 15.7121 21.6367 15.7741 22.7134 15.866C23.4827 15.9319 23.9363 16.34 24.0714 17.0242Z" fill="white" />
        <path d="M5.97486 11.214C5.94092 11.8553 5.90875 12.4626 5.87675 13.07C5.85793 13.072 5.83911 13.0739 5.82029 13.0759C5.78781 12.8808 5.764 12.6842 5.71752 12.4915C5.70321 12.4324 5.63067 12.341 5.57776 12.3375C5.12678 12.3068 4.67419 12.2932 4.19474 12.2732C4.26841 12.8997 4.3321 13.4895 4.41412 14.0776C4.42442 14.1517 4.51609 14.2361 4.59715 14.2814C4.77246 14.3793 4.96546 14.4547 5.13369 14.5802C4.86494 14.5002 4.59394 14.4253 4.33001 14.3355C4.28546 14.3204 4.2557 14.2422 4.24734 14.1899C4.13202 13.4659 4.01397 12.7419 3.91666 12.0161C3.89817 11.8788 3.95542 11.731 3.9966 11.5921C4.07605 11.3238 4.2446 11.1785 4.61935 11.2066C5.05038 11.2388 5.48737 11.214 5.97486 11.214Z" fill="white" />
        <path d="M20.7981 12.274C20.2841 12.2944 19.8027 12.3136 19.3034 12.3334C19.2584 12.6009 19.2164 12.8501 19.1743 13.0992C19.1572 13.0987 19.1404 13.0981 19.1233 13.0977C19.0907 12.4816 19.058 11.8654 19.0234 11.2151C19.5886 11.2151 20.1224 11.2093 20.6557 11.2217C20.7313 11.2235 20.824 11.3031 20.8745 11.3661C21.1111 11.6616 21.0953 11.9968 21.0475 12.3283C20.9588 12.9439 20.8574 13.5582 20.7532 14.172C20.7423 14.2367 20.6943 14.3292 20.6345 14.3501C20.378 14.4401 20.1107 14.508 19.8024 14.5968C19.845 14.554 19.8501 14.5435 19.8582 14.5415C20.5028 14.3792 20.6971 13.9847 20.6729 13.4608C20.6639 13.2673 20.7152 13.0719 20.7366 12.8772C20.7572 12.6914 20.7748 12.5053 20.7981 12.274Z" fill="white" />
        <path d="M1.70117 17.5439C1.8292 16.8944 2.09103 16.6994 2.81929 16.6725C3.84155 16.6348 4.86333 16.5884 5.88591 16.5587C5.98788 16.5557 6.12009 16.6238 6.19117 16.6929C6.30022 16.799 6.36841 16.9349 6.481 17.0971C6.32338 17.1052 6.20838 17.1152 6.09323 17.1164C5.08994 17.1262 4.08682 17.1357 3.08354 17.1428C2.35239 17.1478 2.28693 17.1647 1.70117 17.5439Z" fill="white" />
        <path d="M23.2923 17.5716C22.8883 17.1804 22.3789 17.1331 21.8342 17.1392C20.75 17.1514 19.6656 17.1429 18.4922 17.1429C18.6501 16.9126 18.7503 16.7422 18.8816 16.5909C18.9174 16.5494 19.0467 16.5528 19.1321 16.5559C20.1652 16.5932 21.1981 16.6366 22.2311 16.6736C22.8971 16.6974 23.2117 16.9498 23.2923 17.5716Z" fill="white" />
        <path d="M3.00295 15.2319C3.00295 14.513 3.00408 13.8081 3.00247 13.1034C3.00151 12.6614 3.00762 12.2192 2.98799 11.7778C2.97947 11.5852 3.04847 11.5141 3.27733 11.5323C3.44653 11.5458 3.61863 11.535 3.82867 11.535C3.82867 12.7732 3.82867 13.9922 3.82867 15.232C3.58758 15.2319 3.33105 15.2319 3.00295 15.2319ZM3.41179 12.3153C3.54528 12.1749 3.67797 12.0952 3.68505 12.0084C3.69052 11.941 3.53306 11.802 3.45908 11.8071C3.35486 11.8142 3.2003 11.9148 3.18051 11.9952C3.16282 12.0677 3.29712 12.1667 3.41179 12.3153ZM3.80632 13.1689C3.64179 13.0699 3.53612 12.9578 3.45313 12.9685C3.34601 12.9824 3.25691 13.0946 3.16009 13.1646C3.24903 13.2434 3.33057 13.3761 3.429 13.3857C3.52261 13.3946 3.63358 13.2747 3.80632 13.1689ZM3.41533 13.4497C3.29503 13.6035 3.17086 13.6928 3.17874 13.7729C3.18582 13.8448 3.34923 13.9679 3.42337 13.9581C3.52615 13.9448 3.66832 13.8359 3.6836 13.7537C3.69631 13.6846 3.55124 13.595 3.41533 13.4497ZM3.82208 12.6008C3.63358 12.4991 3.52229 12.3918 3.42723 12.401C3.33025 12.4103 3.24887 12.5344 3.16073 12.6082C3.24774 12.6767 3.33218 12.7969 3.42225 12.8C3.52454 12.8033 3.63181 12.7019 3.82208 12.6008ZM3.40552 14.5921C3.54287 14.453 3.68923 14.3689 3.68344 14.2927C3.67765 14.2155 3.53049 14.1022 3.42868 14.088C3.35373 14.0776 3.18518 14.1975 3.17987 14.2661C3.17328 14.3501 3.29342 14.4413 3.40552 14.5921ZM3.81372 14.8723C3.63905 14.7652 3.53917 14.6571 3.4356 14.6546C3.34666 14.6525 3.17022 14.783 3.18051 14.8334C3.19933 14.9252 3.3169 15.054 3.41404 15.0684C3.50733 15.0823 3.62683 14.9705 3.81372 14.8723Z" fill="white" />
        <path d="M21.9725 15.2427C21.674 15.2427 21.4236 15.2427 21.1562 15.2427C21.1562 14.013 21.1562 12.7931 21.1562 11.5532C21.4395 11.5532 21.6965 11.5532 21.9725 11.5532C21.9725 12.7784 21.9725 13.9976 21.9725 15.2427ZM21.5503 12.3206C21.6835 12.1776 21.8287 12.089 21.8211 12.0107C21.8136 11.9317 21.6635 11.8195 21.559 11.8045C21.4874 11.7943 21.3201 11.9231 21.3166 11.994C21.3124 12.0801 21.4355 12.1706 21.5503 12.3206ZM21.5408 14.5478C21.4295 14.7007 21.3061 14.7953 21.3163 14.8784C21.3254 14.9543 21.4959 15.0839 21.5654 15.0715C21.6703 15.0527 21.811 14.9359 21.8202 14.8519C21.8284 14.7768 21.679 14.6896 21.5408 14.5478ZM21.5461 14.0668C21.682 13.9259 21.8155 13.8471 21.8215 13.7622C21.8263 13.6936 21.6727 13.5559 21.5974 13.5598C21.4942 13.5651 21.3372 13.6642 21.3172 13.7433C21.2989 13.8159 21.4318 13.9153 21.5461 14.0668ZM21.5678 12.8598C21.4433 13.0076 21.3143 13.0942 21.3168 13.1783C21.3187 13.2521 21.4792 13.388 21.5498 13.3797C21.6555 13.3671 21.8055 13.2603 21.8211 13.1781C21.8351 13.1038 21.6939 13.0087 21.5678 12.8598ZM21.5636 12.2887C21.4398 12.4371 21.3139 12.5226 21.3166 12.6051C21.3189 12.6752 21.4795 12.8039 21.5519 12.7955C21.6564 12.7835 21.8047 12.6797 21.8215 12.5988C21.8358 12.5284 21.6931 12.4354 21.5636 12.2887ZM21.9612 14.2945C21.7745 14.1892 21.6659 14.0798 21.5706 14.0874C21.4734 14.0951 21.3891 14.2178 21.2992 14.29C21.3833 14.3596 21.4639 14.4808 21.5522 14.4849C21.6553 14.4898 21.7652 14.3921 21.9612 14.2945Z" fill="white" />
        <path d="M3.22694 17.4642C3.4394 17.4642 3.65219 17.4681 3.86449 17.4631C4.0784 17.4579 4.18696 17.5386 4.18744 17.7187C4.18793 17.9056 4.18793 18.0926 4.1868 18.2795C4.18584 18.4456 4.09239 18.5277 3.88733 18.5255C3.44214 18.5208 2.99679 18.5217 2.55144 18.522C2.32209 18.5221 2.22093 18.424 2.22575 18.2363C2.23025 18.0579 2.23942 17.8792 2.2309 17.7011C2.22205 17.5183 2.33641 17.4615 2.52876 17.4627C2.76149 17.464 2.99422 17.4629 3.2271 17.4629C3.22694 17.4632 3.22694 17.4636 3.22694 17.4642ZM3.45211 18.2905C3.45742 18.2742 3.46273 18.2579 3.46803 18.2415C3.17805 18.093 2.88807 17.9445 2.55096 17.7718C2.5939 17.991 2.42518 18.2305 2.77275 18.2843C2.99212 18.3182 3.22517 18.2905 3.45211 18.2905Z" fill="white" />
        <path d="M5.43221 17.4626C5.47274 17.4623 5.51375 17.4588 5.55364 17.463C5.81628 17.4903 6.07876 17.5191 6.34125 17.5476C6.35476 17.8172 6.38371 18.0872 6.36939 18.3557C6.36617 18.4145 6.21081 18.513 6.12203 18.516C5.6569 18.5312 5.1908 18.5228 4.72486 18.5201C4.52559 18.5191 4.43005 18.4287 4.43166 18.263C4.43343 18.0845 4.44678 17.9053 4.43375 17.7276C4.41831 17.519 4.54296 17.4573 4.76378 17.4619C4.98638 17.4664 5.20929 17.4628 5.43221 17.4626ZM5.67603 18.2913C5.68005 18.2751 5.68408 18.2589 5.6881 18.2426C5.39264 18.0932 5.09719 17.9437 4.78678 17.7866C4.7432 18.173 4.77585 18.276 4.9629 18.2876C5.19932 18.3025 5.43816 18.2913 5.67603 18.2913Z" fill="white" />
        <path d="M19.5534 17.4836C19.841 17.4836 20.0864 17.4655 20.3245 17.493C20.4136 17.5032 20.5406 17.6123 20.5541 17.6885C20.5882 17.8794 20.5678 18.0774 20.5681 18.2725C20.5684 18.4383 20.471 18.5239 20.2712 18.5243C19.8064 18.5253 19.3418 18.5251 18.8769 18.5285C18.6991 18.5297 18.6182 18.4563 18.6149 18.3123C18.6148 18.3038 18.614 18.2953 18.6141 18.2869C18.6312 17.3069 18.4406 17.5031 19.5534 17.4836ZM20.217 17.7861C19.8942 17.955 19.6081 18.1046 19.2636 18.2849C20.2228 18.3477 20.2484 18.3341 20.217 17.7861Z" fill="white" />
        <path d="M21.8137 17.4825C22.0462 17.4823 22.2786 17.4842 22.511 17.4818C22.6858 17.48 22.7718 17.5438 22.7693 17.6954C22.766 17.882 22.7718 18.0686 22.7746 18.2553C22.7775 18.4471 22.6654 18.5288 22.4375 18.5264C22.003 18.5218 21.5685 18.5218 21.1342 18.5306C20.8949 18.5354 20.81 18.4411 20.8126 18.2532C20.8249 17.3334 20.6951 17.4996 21.6926 17.4826C21.7328 17.4821 21.7734 17.4826 21.8137 17.4825ZM21.523 18.2488C22.4698 18.324 22.4868 18.3148 22.4199 17.7947C22.1119 17.9506 21.8174 18.0997 21.523 18.2488Z" fill="white" />
        <path d="M23.0393 14.555C22.8159 14.555 22.6002 14.555 22.3839 14.555C22.3839 14.5212 22.3763 14.4965 22.385 14.4916C22.7109 14.306 22.7385 14.0443 22.7202 13.7372C22.6787 13.0422 22.6768 12.3454 22.6686 11.6492C22.6662 11.4482 22.663 11.2599 22.4 11.1476C22.6034 11.1476 22.8069 11.1476 23.0391 11.1476C23.0393 12.2863 23.0393 13.416 23.0393 14.555Z" fill="white" />
        <path d="M1.95231 11.1478C2.17603 11.1478 2.38463 11.1478 2.59307 11.1478C2.26465 11.2739 2.32963 11.5261 2.32384 11.753C2.30422 12.5107 2.26819 13.2688 2.2854 14.0259C2.28926 14.1983 2.48161 14.3678 2.59195 14.5462C2.41423 14.5462 2.19372 14.5462 1.95215 14.5462C1.95231 13.4218 1.95231 12.2938 1.95231 11.1478Z" fill="white" />
        <path d="M5.11076 10.0021C5.10481 10.1151 5.0995 10.2137 5.09306 10.3364C4.03445 10.3364 2.99643 10.3364 1.9375 10.3364C1.9375 10.2327 1.9375 10.1278 1.9375 10.0021C2.99048 10.0021 4.02963 10.0021 5.11076 10.0021Z" fill="white" />
        <path d="M23.0666 10.0024C23.0666 10.1225 23.0666 10.2217 23.0666 10.3407C22.0242 10.3407 20.9865 10.3407 19.9102 10.3407C19.9035 10.2246 19.8974 10.1199 19.8906 10.0024C20.956 10.0024 22.0038 10.0024 23.0666 10.0024Z" fill="white" />
        <path d="M2.64917 15.725C2.6815 15.6486 2.71382 15.5721 2.75323 15.4788C2.60253 15.495 2.47933 15.5185 2.35613 15.5188C2.22842 15.5191 2.10072 15.4969 1.94777 15.4822C1.93812 15.5349 1.92525 15.6049 1.91223 15.675C1.88762 15.6754 1.86317 15.6758 1.83856 15.6764C1.83856 15.432 1.83181 15.1873 1.84564 14.9433C1.84789 14.9048 1.93683 14.8577 1.99682 14.837C2.05955 14.8154 2.1353 14.8173 2.20559 14.8151C2.88527 14.7941 3.09355 15.0271 2.87498 15.5758C2.84699 15.6459 2.75934 15.6992 2.69935 15.7604C2.68262 15.7485 2.66589 15.7367 2.64917 15.725Z" fill="white" />
        <path d="M23.0849 15.7077C23.0722 15.6035 23.0651 15.5457 23.059 15.4957C22.7958 15.4957 22.5359 15.4957 22.2564 15.4957C22.2844 15.5678 22.3161 15.6497 22.3513 15.7405C22.1277 15.6489 21.9957 15.1808 22.1155 14.9557C22.195 14.8064 22.7896 14.7362 23.0466 14.8457C23.2246 14.9214 23.2616 15.4085 23.0849 15.7077Z" fill="white" />
        <path d="M23.0504 10.9952C22.5968 10.9952 22.1675 10.9952 21.7383 10.9952C22.1323 10.7567 22.4527 10.3766 23.0504 10.5524C23.0504 10.688 23.0504 10.8292 23.0504 10.9952Z" fill="white" />
        <path d="M3.25684 10.9966C2.82822 10.9966 2.3996 10.9966 1.95312 10.9966C1.95312 10.8454 1.95312 10.7056 1.95312 10.5585C2.53486 10.3633 2.85846 10.7626 3.28049 10.9316C3.27261 10.9532 3.26473 10.975 3.25684 10.9966Z" fill="white" />
        <path d="M18.2319 10.8422C17.9028 10.6914 17.559 10.5335 17.252 10.3928C17.2954 10.3928 17.4025 10.3723 17.4924 10.3966C17.7661 10.4709 17.9368 10.3808 18.0215 10.1722C18.1266 9.91346 18.3596 9.84622 18.6465 9.8396C18.5367 10.2008 17.9413 10.4227 18.2319 10.8422Z" fill="white" />
        <path d="M6.76651 10.8437C7.02996 10.4273 6.47782 10.1922 6.32422 9.7793C6.52993 9.86909 6.72116 9.91527 6.84773 10.0176C6.98798 10.1312 7.06904 10.2962 7.16811 10.4283C7.38058 10.41 7.56843 10.394 7.75773 10.3776C7.42079 10.5361 7.09301 10.6904 6.76651 10.8437Z" fill="white" />
        <path d="M4.32112 8.41675C4.32112 8.75244 4.32112 9.02007 4.32112 9.31147C4.11428 9.31147 3.91067 9.31147 3.66797 9.31147C3.87979 9.02115 4.08035 8.74649 4.32112 8.41675Z" fill="white" />
        <path d="M21.3432 9.32216C21.0974 9.32216 20.9023 9.32216 20.6816 9.32216C20.6816 9.03765 20.6816 8.76516 20.6816 8.42285C20.9174 8.74342 21.1193 9.0178 21.3432 9.32216Z" fill="white" />
        <path d="M23.4478 21.6639C23.4478 22.3986 23.4478 23.0998 23.4478 23.8148C16.1474 23.8148 8.86965 23.8148 1.56055 23.8148C1.56055 23.1108 1.56055 22.4049 1.56055 21.6555C1.99995 22.4382 2.78112 22.7883 3.68935 22.9802C3.92223 23.0293 4.16895 23.0535 4.40924 23.0538C9.80442 23.0578 15.1998 23.0685 20.5948 23.048C21.8044 23.0432 22.8088 22.6277 23.4478 21.6639Z" fill="black" />
        <path d="M8.13867 12.4948C8.44007 12.4948 8.73247 12.4948 9.05141 12.4948C9.05141 14.8397 9.05141 17.1822 9.05141 19.541C8.75402 19.541 8.46549 19.541 8.13867 19.541C8.13867 17.1951 8.13867 14.8594 8.13867 12.4948Z" fill="black" />
        <path d="M16.8705 19.5435C16.5401 19.5435 16.2587 19.5435 15.9482 19.5435C15.9482 17.2024 15.9482 14.8602 15.9482 12.5015C16.254 12.5015 16.5531 12.5015 16.8705 12.5015C16.8705 14.8414 16.8705 17.1767 16.8705 19.5435Z" fill="black" />
        <path d="M13.6953 19.5529C13.6953 17.1834 13.6953 14.8453 13.6953 12.4851C13.9901 12.4851 14.2767 12.4851 14.5863 12.4851C14.5863 14.8472 14.5863 17.1899 14.5863 19.5529C14.2946 19.5529 14.0075 19.5529 13.6953 19.5529Z" fill="black" />
        <path d="M11.2932 19.5547C10.9822 19.5547 10.7026 19.5547 10.4043 19.5547C10.4043 17.1991 10.4043 14.8615 10.4043 12.4939C10.7039 12.4939 10.9891 12.4939 11.2932 12.4939C11.2932 14.8456 11.2932 17.1908 11.2932 19.5547Z" fill="black" />
        <path d="M12.3491 19.5689C11.5185 19.6279 11.519 19.6279 11.5189 18.9605C11.5187 16.9359 11.5181 14.9114 11.5176 12.8867C11.5176 12.4665 11.5177 12.4661 12.015 12.4558C12.1144 12.4538 12.2138 12.4555 12.3491 12.4555C12.3491 14.8356 12.3491 17.1946 12.3491 19.5689Z" fill="black" />
        <path d="M15.6782 19.5444C15.404 19.5444 15.1446 19.5444 14.8486 19.5444C14.8486 17.1957 14.8486 14.8529 14.8486 12.4954C15.1187 12.4954 15.3881 12.4954 15.6782 12.4954C15.6782 14.8445 15.6782 17.1878 15.6782 19.5444Z" fill="black" />
        <path d="M10.1495 19.5423C9.86526 19.5423 9.60616 19.5423 9.32422 19.5423C9.32422 17.1976 9.32422 14.8557 9.32422 12.4965C9.60407 12.4965 9.87138 12.4965 10.1495 12.4965C10.1495 14.8436 10.1495 17.1853 10.1495 19.5423Z" fill="black" />
        <path d="M12.6447 12.476C12.7068 12.464 12.7351 12.4537 12.7635 12.4537C13.468 12.4545 13.4696 12.4547 13.4698 13.0441C13.4706 15.1214 13.4648 17.1989 13.4773 19.2761C13.4789 19.5284 13.3826 19.6089 13.1008 19.5847C12.953 19.572 12.8025 19.5824 12.6445 19.5824C12.6447 17.1967 12.6447 14.8349 12.6447 12.476Z" fill="black" />
        <path d="M11.9004 10.7366C11.9552 10.6255 11.9991 10.5365 12.0651 10.4031C12.163 10.6342 12.1819 10.8586 12.4995 10.8566C12.8109 10.8545 12.8528 10.6498 12.9106 10.3722C13.1137 10.9378 13.6411 10.7819 14.0306 10.8447C14.9525 10.9933 15.8857 11.0925 16.8145 11.2109C17.0883 11.2457 17.2417 11.3722 17.2777 11.6516C16.8452 11.2646 16.2904 11.3456 15.796 11.2792C14.8874 11.1571 13.9694 11.0839 13.0549 10.9944C12.9711 10.9862 12.8699 10.987 12.7998 11.019C12.6028 11.1088 12.4194 11.1082 12.2229 11.0221C12.1574 10.9933 12.0699 10.9794 11.9967 10.9869C10.7715 11.1126 9.54578 11.2357 8.32344 11.3787C8.11854 11.4028 7.92859 11.5167 7.72852 11.5903C7.74782 11.3575 7.93326 11.239 8.20716 11.2034C9.12665 11.0839 10.0469 10.9698 10.9671 10.8537C11.2765 10.8148 11.5863 10.7761 11.9004 10.7366Z" fill="black" />
        <path d="M23.9111 9.05754C23.9111 9.23983 23.9111 9.39484 23.9111 9.56687C23.4466 9.56687 22.9836 9.57214 22.5212 9.56147C22.4475 9.55985 22.3547 9.50003 22.3071 9.44508C21.4032 8.39912 20.5047 7.34993 19.6058 6.30101C19.5895 6.2821 19.5839 6.25685 19.5615 6.20986C19.8756 6.19744 20.1737 6.18258 20.4722 6.17448C21.3735 6.15018 22.275 6.12276 23.1766 6.10845C23.6266 6.10129 23.8855 6.15895 23.8913 6.65857C23.8992 7.33035 23.9434 8.00186 23.9706 8.67351C23.9716 8.69565 23.9582 8.71834 23.8764 8.75628C23.849 8.67364 23.803 8.59168 23.7974 8.50796C23.7556 7.87101 23.7155 7.23394 23.689 6.59645C23.6808 6.40147 23.5923 6.29412 23.3266 6.27076C23.3799 6.33382 23.4199 6.38121 23.4617 6.43064C22.9022 6.56958 22.9072 6.57053 22.922 7.0669C22.9424 7.74733 22.949 8.42802 22.9696 9.10844C22.9784 9.39957 23.4021 9.61346 23.6837 9.45169C23.7993 9.38553 23.8275 9.21134 23.9111 9.05754ZM20.7081 6.96144C20.8931 6.41349 21.4266 6.56634 21.8954 6.53718C21.8954 7.15238 21.8954 7.75151 21.8954 8.36834C21.7905 8.34471 21.7013 8.32472 21.5551 8.29191C21.7788 8.53456 21.9652 8.7367 22.1516 8.93884C22.1738 8.93236 22.196 8.92602 22.2182 8.91953C22.2182 8.05128 22.2182 7.18303 22.2182 6.28629C21.7201 6.31005 21.2205 6.33395 20.7081 6.35839C20.7081 6.57566 20.7081 6.76848 20.7081 6.96144Z" fill="black" />
        <path d="M1.08159 9.56936C1.08159 9.38963 1.08159 9.23799 1.08159 9.08622C1.09333 9.08392 1.10523 9.08176 1.11697 9.07947C1.13064 9.11241 1.15219 9.14455 1.15653 9.17831C1.18693 9.4161 1.32863 9.51238 1.62151 9.47727C1.91503 9.44202 2.03163 9.32738 2.03212 9.07258C2.0334 8.32396 2.05303 7.57522 2.08085 6.82701C2.09307 6.4974 1.78781 6.51414 1.53208 6.43825C1.57696 6.38627 1.61974 6.33671 1.67506 6.27257C1.42481 6.29012 1.32043 6.386 1.31174 6.58341C1.28408 7.21239 1.24644 7.84096 1.20623 8.46953C1.20012 8.56446 1.15911 8.6579 1.13434 8.75201C1.10459 8.74756 1.07499 8.74297 1.04524 8.73851C1.04524 8.54015 1.03945 8.34165 1.04636 8.14343C1.06373 7.64179 1.08464 7.14014 1.10812 6.63864C1.12775 6.2168 1.26831 6.09824 1.78202 6.10797C2.76455 6.1266 3.74677 6.15874 4.72914 6.18277C4.95897 6.18831 5.18913 6.18358 5.48828 6.18358C5.24864 6.46958 5.05612 6.7044 4.85765 6.93571C4.15303 7.75629 3.44247 8.5731 2.74477 9.39787C2.63717 9.52507 2.52475 9.5749 2.34542 9.57152C1.93224 9.56409 1.51857 9.56936 1.08159 9.56936ZM3.10761 6.55951C3.37331 6.55951 3.63129 6.50671 3.83072 6.5749C4.01665 6.6385 4.14017 6.83052 4.29328 6.96784C4.29328 6.77097 4.29328 6.57801 4.29328 6.35885C3.78022 6.33428 3.28019 6.31024 2.78675 6.28648C2.78675 7.18579 2.78675 8.05431 2.78675 8.92283C2.80846 8.92715 2.83001 8.93161 2.85173 8.93593C3.03524 8.73338 3.21891 8.53083 3.45823 8.26658C3.2908 8.32005 3.212 8.3453 3.10777 8.37865C3.10761 7.75616 3.10761 7.15716 3.10761 6.55951Z" fill="black" />
        <path d="M3.41241 12.3153C3.2979 12.1666 3.16344 12.0676 3.18129 11.9951C3.20108 11.9149 3.35564 11.8143 3.45986 11.807C3.53384 11.8019 3.6913 11.9408 3.68583 12.0084C3.67859 12.0952 3.5459 12.1748 3.41241 12.3153Z" fill="black" />
        <path d="M3.80639 13.1689C3.63365 13.2747 3.52251 13.3946 3.42907 13.3857C3.33064 13.3763 3.2491 13.2435 3.16016 13.1645C3.25698 13.0946 3.34608 12.9824 3.4532 12.9685C3.53635 12.9578 3.64201 13.0699 3.80639 13.1689Z" fill="black" />
        <path d="M3.41467 13.4497C3.55057 13.595 3.69564 13.6845 3.68294 13.7535C3.66782 13.8358 3.52548 13.9446 3.42271 13.958C3.34856 13.9677 3.18515 13.8447 3.17808 13.7727C3.17036 13.6926 3.29436 13.6034 3.41467 13.4497Z" fill="black" />
        <path d="M3.82151 12.6008C3.63108 12.7019 3.5238 12.8033 3.42167 12.7998C3.33161 12.7967 3.24717 12.6765 3.16016 12.6081C3.24829 12.5342 3.32968 12.4103 3.42666 12.4008C3.52187 12.3918 3.63301 12.4991 3.82151 12.6008Z" fill="black" />
        <path d="M3.4056 14.592C3.2935 14.441 3.17335 14.35 3.17995 14.266C3.18525 14.1974 3.35381 14.0774 3.42876 14.0879C3.53057 14.1021 3.67773 14.2155 3.68352 14.2926C3.68915 14.3689 3.54295 14.4531 3.4056 14.592Z" fill="black" />
        <path d="M3.81332 14.8722C3.62643 14.9703 3.50693 15.0821 3.41365 15.0684C3.31651 15.0541 3.19894 14.9252 3.18012 14.8335C3.16983 14.7831 3.34626 14.6525 3.4352 14.6547C3.53878 14.6571 3.63866 14.7651 3.81332 14.8722Z" fill="black" />
        <path d="M21.5502 12.3206C21.4352 12.1706 21.3122 12.08 21.3165 11.994C21.3201 11.9231 21.4873 11.7943 21.5589 11.8045C21.6634 11.8195 21.8135 11.9317 21.8211 12.0107C21.8286 12.089 21.6834 12.1776 21.5502 12.3206Z" fill="black" />
        <path d="M21.5417 14.5477C21.6798 14.6895 21.8292 14.7767 21.8209 14.8518C21.8117 14.9359 21.671 15.0527 21.5661 15.0714C21.4968 15.0838 21.3263 14.9542 21.317 14.8783C21.307 14.7951 21.4304 14.7006 21.5417 14.5477Z" fill="black" />
        <path d="M21.547 14.0668C21.4326 13.9154 21.2998 13.8159 21.3181 13.7433C21.3381 13.6641 21.4949 13.5649 21.5983 13.5598C21.6737 13.556 21.8272 13.6937 21.8223 13.7622C21.8164 13.8471 21.6829 13.9257 21.547 14.0668Z" fill="black" />
        <path d="M21.5685 12.8597C21.6947 13.0088 21.8358 13.1037 21.8218 13.1779C21.8062 13.2601 21.6561 13.3669 21.5505 13.3795C21.4799 13.3879 21.3195 13.2519 21.3174 13.1781C21.315 13.0942 21.444 13.0076 21.5685 12.8597Z" fill="black" />
        <path d="M21.5636 12.2887C21.6931 12.4353 21.8358 12.5284 21.8213 12.5987C21.8047 12.6797 21.6563 12.7835 21.5517 12.7955C21.4794 12.8038 21.3187 12.6752 21.3164 12.6051C21.3139 12.5226 21.4398 12.4371 21.5636 12.2887Z" fill="black" />
        <path d="M21.9618 14.2944C21.7657 14.3921 21.6559 14.4897 21.5528 14.485C21.4645 14.4809 21.3838 14.3595 21.2998 14.2901C21.3897 14.2177 21.474 14.0951 21.5711 14.0874C21.6665 14.0797 21.7751 14.1891 21.9618 14.2944Z" fill="black" />
        <path d="M3.4523 18.2905C3.22537 18.2905 2.99232 18.3182 2.77294 18.2842C2.42538 18.2304 2.59409 17.9909 2.55115 17.7716C2.88826 17.9443 3.17824 18.0928 3.46823 18.2414C3.46292 18.2579 3.45761 18.2742 3.4523 18.2905Z" fill="black" />
        <path d="M5.67596 18.2912C5.43808 18.2912 5.19941 18.3024 4.96282 18.2877C4.77577 18.276 4.74312 18.1731 4.78671 17.7867C5.09712 17.9438 5.39257 18.0933 5.68802 18.2427C5.684 18.2588 5.67998 18.275 5.67596 18.2912Z" fill="black" />
        <path d="M20.2171 17.7861C20.2485 18.3341 20.2229 18.3477 19.2637 18.2849C19.6082 18.1047 19.8943 17.9551 20.2171 17.7861Z" fill="black" />
        <path d="M21.5234 18.2488C21.8179 18.0997 22.1124 17.9506 22.4204 17.7947C22.4873 18.3148 22.4703 18.3241 21.5234 18.2488Z" fill="black" />
        <path d="M20.708 6.96141C20.708 6.76845 20.708 6.57563 20.708 6.35836C21.2204 6.33392 21.7198 6.31002 22.2181 6.28625C22.2181 7.183 22.2181 8.05125 22.2181 8.9195C22.1959 8.92598 22.1737 8.93233 22.1515 8.93881C21.9651 8.73667 21.7787 8.53439 21.555 8.29188C21.7012 8.32469 21.7904 8.34481 21.8953 8.3683C21.8953 7.75135 21.8953 7.15235 21.8953 6.53714C21.4263 6.56618 20.8928 6.41332 20.708 6.96141Z" fill="white" />
        <path d="M3.10716 6.55953C3.10716 7.15732 3.10716 7.75632 3.10716 8.37867C3.21138 8.34532 3.29035 8.32007 3.45762 8.2666C3.21813 8.53072 3.03462 8.7334 2.85111 8.93595C2.8294 8.93163 2.80785 8.92717 2.78613 8.92285C2.78613 8.05433 2.78613 7.18581 2.78613 6.2865C3.27957 6.31013 3.7796 6.33416 4.29266 6.35888C4.29266 6.57803 4.29266 6.77099 4.29266 6.96787C4.13955 6.83054 4.01603 6.63853 3.83011 6.57493C3.63083 6.50673 3.37285 6.55953 3.10716 6.55953Z" fill="white" />
    </svg>

    // dashboard_manager
    <svg width="25" height="25" viewBox="0 0 25 25" fill="none" xmlns="http://www.w3.org/2000/svg" id="dashboard_manager">
        <path d="M12.554 15.2416C10.1307 15.2416 8.06079 13.7764 6.93329 11.3141C6.47892 11.1026 5.92359 10.725 5.73848 10.3171C5.40191 9.60714 5.06534 7.59807 5.45239 6.94852C5.63751 6.63129 5.97407 6.46513 6.31064 6.37449C5.97407 5.3624 5.53653 3.86692 7.16889 1.67658C8.07762 0.483214 10.2317 0.301943 10.5177 0.317049C10.7028 0.332155 10.9889 0.301944 11.1067 0.286838C11.5106 -0.0303849 12.1501 -0.0152792 13.1261 0.0149325C13.2776 0.0149325 13.429 0.0300384 13.5468 0.0300384C14.0685 0.0300384 14.7248 0.392579 15.4821 1.13276C16.2899 0.996812 17.4174 1.11766 18.2924 2.08443C19.2517 3.17205 19.1339 5.22645 18.9992 6.28386C19.2348 6.45002 19.4704 6.67661 19.6387 7.00894C19.908 7.56785 19.706 8.33825 19.4031 9.36545C19.3358 9.57693 19.2853 9.77331 19.2517 9.89415C19.0834 10.6646 18.5449 11.0271 18.1242 11.2839C16.6264 14.7884 14.3546 15.2416 12.554 15.2416ZM7.30351 9.68267C7.40448 9.78841 7.72422 9.96968 7.85885 10.015C8.11128 10.0905 8.33004 10.2567 8.41419 10.4833C9.64266 13.4742 11.8808 13.7008 12.554 13.7008C13.9002 13.7008 15.4316 13.4591 16.5928 10.4984C16.6601 10.3473 16.7779 10.2114 16.9293 10.1056C16.9798 10.0754 17.0303 10.0452 17.064 10.0301C17.4342 9.80352 17.5183 9.7431 17.552 9.56183C17.5856 9.39566 17.653 9.18418 17.7203 8.94249C17.8212 8.61016 18.0568 7.82465 18.0232 7.56785C17.9727 7.47722 17.8549 7.4319 17.8212 7.4319C17.3669 7.34127 17.1313 6.96362 17.1986 6.55576C17.4005 5.45304 17.4679 3.62523 16.9293 3.021C16.3572 2.35634 15.5999 2.67356 15.5662 2.68867C15.2128 2.83973 14.7921 2.74909 14.5397 2.49229C14.1695 2.09954 13.6646 1.67658 13.4459 1.55573C13.3281 1.55573 13.1934 1.55573 13.0588 1.54062C12.8064 1.52552 12.3352 1.51041 12.1164 1.54062C11.5947 1.87295 10.7365 1.87295 10.4336 1.85785C10.0802 1.87295 8.91904 2.11464 8.5993 2.53761C7.354 4.18415 7.67374 5.12071 7.99348 6.02706C8.06079 6.22343 8.1281 6.41981 8.17859 6.63129C8.19542 6.69172 8.19542 6.75214 8.19542 6.79746C8.19542 6.9183 8.17859 7.06936 8.14493 7.19021C8.07762 7.58296 7.69057 7.85487 7.2362 7.83976H6.96695C6.98378 8.30804 7.1184 9.2446 7.30351 9.68267ZM24.1151 23.2175H17.4679C16.9967 23.2175 16.6096 22.8701 16.6096 22.4471C16.6096 22.0241 16.9967 21.6767 17.4679 21.6767H23.2568C23.1895 20.6344 22.7856 18.7311 20.7157 18.1571C19.0834 17.719 18.1746 17.5679 17.5856 17.4773C16.8452 17.3564 16.4077 17.296 15.7682 16.8277C15.398 16.5558 15.3475 16.0724 15.6504 15.7401C15.9533 15.4078 16.4918 15.3625 16.862 15.6344C17.1481 15.8459 17.2154 15.861 17.8886 15.9667C18.528 16.0724 19.4873 16.2235 21.2206 16.6918C24.5863 17.5981 25.1416 20.9063 24.9733 22.5226C24.9396 22.9154 24.5694 23.2175 24.1151 23.2175ZM7.32034 23.2175H0.858247C0.62265 23.2175 0.403881 23.1269 0.252426 22.9909C0.0841421 22.8399 0 22.6435 0 22.432C0.0673135 19.3806 0.706792 18.5649 2.22135 17.296C3.28153 16.4048 4.57732 16.2084 5.94042 15.9969C6.54624 15.9063 7.16889 15.8005 7.82519 15.6344C8.27956 15.5286 8.75075 15.7703 8.88538 16.1782C9.00318 16.586 8.73392 17.009 8.27956 17.1299C7.53911 17.3111 6.84915 17.4169 6.24333 17.5226C5.03168 17.719 4.08929 17.87 3.39933 18.4441C2.3728 19.29 1.90161 19.6978 1.76698 21.6918H7.33717C7.80836 21.6918 8.19542 22.0393 8.19542 22.4622C8.19542 22.8852 7.79154 23.2175 7.32034 23.2175ZM12.453 25C12.2847 25 12.1164 24.9547 11.965 24.8489L9.40706 22.9607C9.12098 22.7492 9.05367 22.4018 9.22195 22.1148L11.174 18.7613L9.9624 17.3715C9.79411 17.1903 9.76046 16.9335 9.8446 16.7069C9.94557 16.4803 10.1475 16.3141 10.4168 16.2688C10.4672 16.2688 11.5106 16.0876 12.4867 16.0876C13.4627 16.0876 14.4556 16.2688 14.5061 16.2688C14.7585 16.3141 14.9773 16.4803 15.0782 16.7069C15.1792 16.9335 15.1287 17.1752 14.9604 17.3715L13.7656 18.7462L15.7345 22.0997C15.9028 22.3867 15.8187 22.7492 15.5326 22.9607L12.9242 24.8489C12.7896 24.9547 12.6213 25 12.453 25ZM10.8543 22.2658L12.453 23.4441L14.1022 22.2658L12.4698 19.5015L10.8543 22.2658ZM12.0155 17.4924L12.4867 18.0362L12.9578 17.4924C12.6381 17.4773 12.3184 17.4773 12.0155 17.4924Z" fill="black" />
    </svg>

    // dashboard_customers
    <svg width="24" height="24" viewBox="0 0 24 24" fill="none" xmlns="http://www.w3.org/2000/svg" id="dashboard_customers">
        <path d="M8.25 15C10.9424 15 13.125 12.8174 13.125 10.125C13.125 7.43261 10.9424 5.25 8.25 5.25C5.55761 5.25 3.375 7.43261 3.375 10.125C3.375 12.8174 5.55761 15 8.25 15Z" stroke="#343434" stroke-width="1.5" stroke-linecap="round" stroke-linejoin="round" />
        <path d="M14.5703 5.43173C15.2408 5.24281 15.9441 5.19978 16.6326 5.30552C17.3212 5.41126 17.9791 5.66333 18.562 6.04475C19.1449 6.42616 19.6393 6.92807 20.012 7.51666C20.3846 8.10525 20.6268 8.76685 20.7221 9.45692C20.8175 10.147 20.764 10.8495 20.565 11.5171C20.366 12.1847 20.0263 12.8019 19.5687 13.3272C19.1111 13.8524 18.5463 14.2735 17.9123 14.5621C17.2782 14.8507 16.5897 15.0001 15.8931 15.0001" stroke="#343434" stroke-width="1.5" stroke-linecap="round" stroke-linejoin="round" />
        <path d="M1.5 18.5059C2.26138 17.4229 3.27215 16.539 4.44698 15.9288C5.62182 15.3186 6.92623 15.0001 8.25008 15C9.57393 14.9999 10.8784 15.3184 12.0532 15.9285C13.2281 16.5386 14.239 17.4225 15.0004 18.5054" stroke="#343434" stroke-width="1.5" stroke-linecap="round" stroke-linejoin="round" />
        <path d="M15.8926 15C17.2166 14.999 18.5213 15.3171 19.6962 15.9273C20.8712 16.5375 21.8819 17.4218 22.6426 18.5054" stroke="#343434" stroke-width="1.5" stroke-linecap="round" stroke-linejoin="round" />
    </svg>

    // dashboard_logout
    <svg width="24" height="24" viewBox="0 0 24 24" fill="none" xmlns="http://www.w3.org/2000/svg" id="dashboard_logout">
        <path d="M16.3135 8.0625L20.2499 12L16.3135 15.9375" stroke="black" stroke-width="1.5" stroke-linecap="round" stroke-linejoin="round" />
        <path d="M9.75 12H20.2472" stroke="black" stroke-width="1.5" stroke-linecap="round" stroke-linejoin="round" />
        <path d="M9.75 20.25H4.5C4.30109 20.25 4.11032 20.171 3.96967 20.0303C3.82902 19.8897 3.75 19.6989 3.75 19.5V4.5C3.75 4.30109 3.82902 4.11032 3.96967 3.96967C4.11032 3.82902 4.30109 3.75 4.5 3.75H9.75" stroke="black" stroke-width="1.5" stroke-linecap="round" stroke-linejoin="round" />
    </svg>

    //arrow_detail
    <svg width="8" height="14" viewBox="0 0 8 14" fill="none" xmlns="http://www.w3.org/2000/svg" id="arrow_detail">
    <path d="M1 13L7 7L1 1" stroke="black" stroke-width="1.5" stroke-linecap="round" stroke-linejoin="round" />
    </svg>

    // ok
    <svg width="18" height="13" viewBox="0 0 18 13" fill="none" xmlns="http://www.w3.org/2000/svg" id='ok'>
        <path d="M17 1L6 12L1 7" stroke="white" stroke-width="1.5" stroke-linecap="round" stroke-linejoin="round" />
    </svg>

    // cancel
    <svg width="16" height="16" viewBox="0 0 16 16" fill="none" xmlns="http://www.w3.org/2000/svg" id='cancel'>
        <path d="M16.3333 1.3335L1.33325 16.3335" stroke="white" stroke-width="1.5" stroke-linecap="round" stroke-linejoin="round" />
        <path d="M1.33325 1.3335L16.3333 16.3335" stroke="white" stroke-width="1.5" stroke-linecap="round" stroke-linejoin="round" />
    </svg>
</svg>