<svg>
    // logo
    <symbol width="130" height="30" viewBox="0 0 130 30" fill="none" xmlns="http://www.w3.org/2000/svg" id="logo">
        <path d="M17.56 21.992H25.496V25H13.432L17.56 21.992ZM0.888 13.448C0.888 11.848 1.18667 10.344 1.784 8.936C2.40267 7.50667 3.256 6.248 4.344 5.16C5.432 4.05067 6.68 3.18667 8.088 2.568C9.51733 1.928 11.0533 1.608 12.696 1.608C14.3173 1.608 15.832 1.928 17.24 2.568C18.6693 3.18667 19.928 4.05067 21.016 5.16C22.1253 6.248 22.9893 7.50667 23.608 8.936C24.2267 10.344 24.536 11.848 24.536 13.448C24.536 15.0907 24.2267 16.6267 23.608 18.056C22.9893 19.4853 22.1253 20.744 21.016 21.832C19.928 22.8987 18.6693 23.7413 17.24 24.36C15.832 24.9573 14.3173 25.256 12.696 25.256C11.0533 25.256 9.51733 24.9573 8.088 24.36C6.68 23.7627 5.432 22.9307 4.344 21.864C3.256 20.7973 2.40267 19.5493 1.784 18.12C1.18667 16.6907 0.888 15.1333 0.888 13.448ZM4.088 13.48C4.088 14.696 4.312 15.8373 4.76 16.904C5.208 17.9493 5.82667 18.8773 6.616 19.688C7.40533 20.4987 8.32267 21.128 9.368 21.576C10.4133 22.024 11.544 22.248 12.76 22.248C13.9547 22.248 15.0747 22.024 16.12 21.576C17.1653 21.128 18.072 20.4987 18.84 19.688C19.608 18.8773 20.216 17.9493 20.664 16.904C21.112 15.8373 21.336 14.6853 21.336 13.448C21.336 12.2533 21.112 11.1227 20.664 10.056C20.216 8.98933 19.5973 8.06133 18.808 7.272C18.0187 6.46133 17.1013 5.832 16.056 5.384C15.0107 4.91467 13.8907 4.68 12.696 4.68C11.48 4.68 10.3493 4.91467 9.304 5.384C8.25867 5.832 7.34133 6.46133 6.552 7.272C5.76267 8.08267 5.15467 9.02133 4.728 10.088C4.30133 11.1547 4.088 12.2853 4.088 13.48ZM34.159 25.512C32.9643 25.512 31.9723 25.1493 31.183 24.424C30.415 23.6773 30.0097 22.7173 29.967 21.544V11.752H32.943V20.488C32.9857 21.2133 33.1883 21.8 33.551 22.248C33.935 22.696 34.5323 22.9307 35.343 22.952C36.0897 22.952 36.751 22.7387 37.327 22.312C37.9243 21.864 38.4043 21.2667 38.767 20.52C39.1297 19.752 39.311 18.888 39.311 17.928V11.752H42.287V25H39.567L39.311 21.736L39.471 22.312C39.215 22.9307 38.8203 23.4853 38.287 23.976C37.775 24.4453 37.167 24.8187 36.463 25.096C35.759 25.3733 34.991 25.512 34.159 25.512ZM47.4358 11.752H50.4118V25H47.4358V11.752ZM47.2118 6.952C47.2118 6.48267 47.3931 6.088 47.7558 5.768C48.1398 5.448 48.5558 5.288 49.0038 5.288C49.4518 5.288 49.8464 5.448 50.1878 5.768C50.5504 6.088 50.7318 6.48267 50.7318 6.952C50.7318 7.44267 50.5504 7.848 50.1878 8.168C49.8464 8.46667 49.4518 8.616 49.0038 8.616C48.5558 8.616 48.1398 8.456 47.7558 8.136C47.3931 7.816 47.2118 7.42133 47.2118 6.952ZM66.3128 23.784C65.7154 24.2533 65.0008 24.6267 64.1688 24.904C63.3368 25.1813 62.5048 25.32 61.6728 25.32C60.2221 25.32 58.9528 25.032 57.8648 24.456C56.7768 23.88 55.9234 23.08 55.3048 22.056C54.7074 21.0107 54.4088 19.784 54.4088 18.376C54.4088 16.968 54.7288 15.7413 55.3688 14.696C56.0301 13.6507 56.8834 12.8507 57.9288 12.296C58.9954 11.72 60.1368 11.432 61.3528 11.432C62.4194 11.432 63.3688 11.5813 64.2008 11.88C65.0541 12.1787 65.7794 12.584 66.3768 13.096L64.9048 15.016C64.5208 14.7173 64.0514 14.4507 63.4968 14.216C62.9421 13.9813 62.3128 13.864 61.6088 13.864C60.8408 13.864 60.1261 14.0667 59.4648 14.472C58.8248 14.856 58.3128 15.3893 57.9288 16.072C57.5661 16.7547 57.3848 17.5227 57.3848 18.376C57.3848 19.1867 57.5768 19.944 57.9608 20.648C58.3448 21.3307 58.8781 21.8747 59.5608 22.28C60.2434 22.664 61.0221 22.856 61.8968 22.856C62.4728 22.856 62.9954 22.7707 63.4648 22.6C63.9554 22.4293 64.3928 22.1947 64.7768 21.896L66.3128 23.784ZM70.1545 25V0.231998H73.1305V25H70.1545ZM76.3305 16.2L82.4105 25H78.9225L74.3465 17.864L76.3305 16.2ZM72.2025 20.776L71.9145 17.928L79.9465 11.464L81.7705 13.032L72.2025 20.776ZM104.94 23.016C104.62 23.2933 104.172 23.5707 103.596 23.848C103.02 24.104 102.38 24.3387 101.676 24.552C100.993 24.7653 100.279 24.936 99.532 25.064C98.8067 25.192 98.124 25.256 97.484 25.256C95.628 25.256 93.9533 24.968 92.46 24.392C90.988 23.816 89.7187 23.016 88.652 21.992C87.6067 20.968 86.796 19.7627 86.22 18.376C85.6653 16.9893 85.388 15.4853 85.388 13.864C85.388 11.944 85.6973 10.2267 86.316 8.712C86.956 7.176 87.82 5.88533 88.908 4.84C90.0173 3.77333 91.2867 2.97333 92.716 2.44C94.1453 1.88533 95.66 1.608 97.26 1.608C98.604 1.608 99.852 1.768 101.004 2.088C102.156 2.408 103.169 2.81333 104.044 3.304L102.988 6.152C102.561 5.896 102.028 5.66133 101.388 5.448C100.769 5.23467 100.129 5.064 99.468 4.936C98.8067 4.78667 98.188 4.712 97.612 4.712C96.2467 4.712 95.0093 4.92533 93.9 5.352C92.7907 5.75733 91.8413 6.35467 91.052 7.144C90.2627 7.912 89.6547 8.85067 89.228 9.96C88.8013 11.048 88.588 12.2747 88.588 13.64C88.588 14.8987 88.8013 16.0507 89.228 17.096C89.6547 18.1413 90.2627 19.048 91.052 19.816C91.8413 20.5627 92.78 21.1493 93.868 21.576C94.9773 21.9813 96.1933 22.184 97.516 22.184C98.3053 22.184 99.084 22.1093 99.852 21.96C100.62 21.7893 101.281 21.5547 101.836 21.256V16.648H97.228V13.672H104.94V23.016ZM108.971 18.248C108.971 16.9253 109.281 15.7307 109.899 14.664C110.539 13.5973 111.414 12.7547 112.523 12.136C113.633 11.5173 114.891 11.208 116.299 11.208C117.75 11.208 119.019 11.5173 120.107 12.136C121.195 12.7547 122.038 13.5973 122.635 14.664C123.233 15.7307 123.531 16.9253 123.531 18.248C123.531 19.5707 123.233 20.776 122.635 21.864C122.038 22.9307 121.185 23.7733 120.075 24.392C118.987 25.0107 117.718 25.32 116.267 25.32C114.859 25.32 113.601 25.032 112.491 24.456C111.403 23.8587 110.539 23.0373 109.899 21.992C109.281 20.9253 108.971 19.6773 108.971 18.248ZM111.947 18.28C111.947 19.1333 112.139 19.912 112.523 20.616C112.907 21.2987 113.419 21.8427 114.059 22.248C114.721 22.6533 115.446 22.856 116.235 22.856C117.067 22.856 117.803 22.6533 118.443 22.248C119.105 21.8427 119.617 21.2987 119.979 20.616C120.342 19.912 120.523 19.1333 120.523 18.28C120.523 17.4267 120.342 16.6587 119.979 15.976C119.617 15.272 119.105 14.7173 118.443 14.312C117.803 13.8853 117.067 13.672 116.235 13.672C115.425 13.672 114.689 13.8853 114.027 14.312C113.387 14.7387 112.875 15.304 112.491 16.008C112.129 16.6907 111.947 17.448 111.947 18.28Z" fill="#0BD366"/>
    </symbol>

    // burger
    <symbol width="45" height="45" viewBox="0 0 45 45" fill="none" xmlns="http://www.w3.org/2000/svg" id="burger">
        <g clip-path="url(#clip0_37_45)">
        <path d="M39.375 14.0625H5.625C5.25204 14.0625 4.89435 13.9143 4.63063 13.6506C4.36691 13.3869 4.21875 13.0292 4.21875 12.6562C4.21875 12.2833 4.36691 11.9256 4.63063 11.6619C4.89435 11.3982 5.25204 11.25 5.625 11.25H39.375C39.748 11.25 40.1056 11.3982 40.3694 11.6619C40.6331 11.9256 40.7812 12.2833 40.7812 12.6562C40.7812 13.0292 40.6331 13.3869 40.3694 13.6506C40.1056 13.9143 39.748 14.0625 39.375 14.0625Z" fill="black"/>
        <path d="M39.375 23.9062H5.625C5.25204 23.9062 4.89435 23.7581 4.63063 23.4944C4.36691 23.2306 4.21875 22.873 4.21875 22.5C4.21875 22.127 4.36691 21.7694 4.63063 21.5056C4.89435 21.2419 5.25204 21.0938 5.625 21.0938H39.375C39.748 21.0938 40.1056 21.2419 40.3694 21.5056C40.6331 21.7694 40.7812 22.127 40.7812 22.5C40.7812 22.873 40.6331 23.2306 40.3694 23.4944C40.1056 23.7581 39.748 23.9062 39.375 23.9062Z" fill="black"/>
        <path d="M39.375 33.75H5.625C5.25204 33.75 4.89435 33.6018 4.63063 33.3381C4.36691 33.0744 4.21875 32.7167 4.21875 32.3438C4.21875 31.9708 4.36691 31.6131 4.63063 31.3494C4.89435 31.0857 5.25204 30.9375 5.625 30.9375H39.375C39.748 30.9375 40.1056 31.0857 40.3694 31.3494C40.6331 31.6131 40.7812 31.9708 40.7812 32.3438C40.7812 32.7167 40.6331 33.0744 40.3694 33.3381C40.1056 33.6018 39.748 33.75 39.375 33.75Z" fill="black"/>
        </g>
        <defs>
        <clipPath id="clip0_37_45">
        <rect width="45" height="45" fill="white"/>
        </clipPath>
        </defs>
    </symbol>
</svg>